<ttFont>
          <CharString index="0">
            -107 callgsubr
            endchar
          </CharString>
          <CharString index="1">
            132 hlineto
            55 149 rlineto
            314 hlineto
            56 -149 rlineto
            138 hlineto
            -267 -66 callsubr
            -40 -429 rmoveto
            70 188 14 37 25 80 5 14 rlinecurve
            5 hlineto
            5 -14 25 -81 14 -36 70 -188 rcurveline
            return
          </CharString>
          <CharString index="2">
            rmoveto
            -31 callgsubr
            86 189 189 -87 86 -172 -172 -87 -86 -189 -189 87 -86 172 -27 callgsubr
            -97 -38 56 -31 callsubr
            14 vlineto
            114 38 56 97 96 39 -56 -114 vhcurveto
            -14 vlineto
            -114 -39 -56 -96 vhcurveto
            return
          </CharString>
          <CharString index="3">
            rmoveto
            103 hlineto
            57 72 56 -72 rlineto
            103 hlineto
            -105 135 rlineto
            -61 callsubr
            return
          </CharString>
          <CharString index="4">
            rmoveto
            76 56 33 49 37 -32 callgsubr
            -355 vlineto
            -134 69 -49 101 vhcurveto
            return
          </CharString>
          <CharString index="5">
            182 109 87 179 -22 callgsubr
            -429 vlineto
            -106 -61 -55 -102 -102 -59 55 106 vhcurveto
            429 -128 -432 vlineto
            -179 109 -87 180 vhcurveto
            return
          </CharString>
          <CharString index="6">
            rmoveto
            115 41 69 61 -28 callsubr
            -21 -3 -21 -29 -53 hhcurveto
            -53 -19 29 21 -4 -28 callsubr
            -61 40 -69 -27 callsubr
            return
          </CharString>
          <CharString index="7">
            -60 callgsubr
            108 -23 callsubr
            -121 hlineto
            return
          </CharString>
          <CharString index="8">
            rmoveto
            220 -1 hlineto
            -106 -78 -58 -123 -140 -69 72 165 -1 vhcurveto
            20 vlineto
            159 73 78 149 101 84 -48 -90 vhcurveto
            132 hlineto
            167 -145 79 -175 -222 -128 -114 -241 -245 123 -110 212 102 71 28 60 60 vhcurveto
            11 -76 rlineto
            91 367 -348 hlineto
            return
          </CharString>
          <CharString index="9">
            rmoveto
            120 51 95 114 41 hvcurveto
            175 499 rlineto
            -121 hlineto
            -80 -253 rlineto
            -17 -53 -24 -93 0 vvcurveto
            -5 hlineto
            0 -26 99 -18 47 vhcurveto
            -99 253 rlineto
            -126 hlineto
            205 -526 rlineto
            -65 -21 -36 -23 -50 hhcurveto
            -54 -83 hlineto
            -1 5 31 -10 49 hhcurveto
            return
          </CharString>
          <CharString index="10">
            rmoveto
            -127 64 vlineto
            -13 -36 -29 -23 -46 -12 rrcurveto
            46 -58 -79 22 -95 1 callsubr
            -241 130 -114 215 215 131 114 241 101 -23 78 -42 58 hvcurveto
            81 32 39 61 101 vvcurveto
            54 vlineto
            -186 -496 rmoveto
            -53 callsubr
            21 vlineto
            157 76 80 138 139 76 -80 -157 vhcurveto
            return
          </CharString>
          <CharString index="11">
            rmoveto
            108 hlineto
            105 135 -36 callsubr
            -56 -72 -57 72 -36 callsubr
            return
          </CharString>
          <CharString index="12">
            rmoveto
            161 83 82 163 hvcurveto
            463 -120 -273 vlineto
            -80 -53 -54 -70 -56 -36 25 74 vhcurveto
            308 -120 -329 vlineto
            -133 71 -49 102 75 52 32 45 35 vhcurveto
            5 -33 hlineto
            -96 -1 -42 -47 -88 hhcurveto
            -48 -43 15 44 hvcurveto
            -117 -10 hlineto
            -100 88 -47 122 vhcurveto
            endchar
          </CharString>
          <CharString index="13">
            -605 -107 callgsubr
            return
          </CharString>
          <CharString index="14">
            rmoveto
            107 110 -107 hlineto
            202 -110 -75 callsubr
            return
          </CharString>
          <CharString index="15">
            126 hlineto
            67 274 rlineto
            11 43 11 69 0 vvcurveto
            5 hlineto
            0 13 -70 11 -43 vhcurveto
            65 -273 rlineto
            126 hlineto
            157 526 rlineto
            -115 hlineto
            -63 -246 rlineto
            -12 -48 -19 -92 0 vvcurveto
            -5 hlineto
            0 -20 99 -10 41 vhcurveto
            -63 246 rlineto
            -129 hlineto
            -59 -245 rlineto
            -9 -37 -21 -104 0 vvcurveto
            -5 hlineto
            0 -21 108 -10 34 vhcurveto
            -65 244 rlineto
            4 callgsubr
          </CharString>
          <CharString index="16">
            -60 callgsubr
            -74 132 -63 callsubr
            -1 -3 rlineto
            262 -129 -60 callgsubr
            -73 132 rlineto
            -121 hlineto
            -1 -3 rlineto
            return
          </CharString>
          <CharString index="17">
            rmoveto
            -93 callgsubr
            return
          </CharString>
          <CharString index="18">
            rmoveto
            79 hlineto
            21 4 19 29 53 hhcurveto
            53 21 -29 -21 3 hvcurveto
            79 hlineto
            61 -41 69 -115 -115 -40 -69 -61 vhcurveto
            return
          </CharString>
          <CharString index="19">
            rmoveto
            -127 64 vlineto
            -12 -35 -28 -22 -43 -13 rrcurveto
            -75 -17 callsubr
            -355 vlineto
            -134 69 -49 101 76 56 33 49 37 vhcurveto
            -70 callsubr
            475 hlineto
            80 32 39 62 100 vvcurveto
            54 vlineto
            return
          </CharString>
          <CharString index="20">
            rmoveto
            118 118 -118 hlineto
            return
          </CharString>
          <CharString index="21">
            rmoveto
            142 81 78 131 hvcurveto
            -116 hlineto
            -72 -36 -40 -68 -89 -36 56 -27 callsubr
            12 vlineto
            116 37 57 83 72 31 -38 -74 -15 callgsubr
            139 -83 70 -140 -163 -81 -86 -189 -189 80 -86 164 vhcurveto
            endchar
          </CharString>
          <CharString index="22">
            75 52 53 66 60 37 -25 -75 vhcurveto
            -334 120 355 vlineto
            134 -70 49 -100 return
          </CharString>
          <CharString index="23">
            -90 callsubr
            endchar
          </CharString>
          <CharString index="24">
            rmoveto
            100 29 68 66 hvcurveto
            574 -120 -566 vlineto
            -29 -16 -16 -29 vhcurveto
            -49 -82 hlineto
            -8 20 37 -7 28 hhcurveto
            endchar
          </CharString>
          <CharString index="25">
            736 -100 callsubr
            return
          </CharString>
          <CharString index="26">
            455 98 -281 hlineto
            269 373 rlineto
            55 -426 -98 251 vlineto
            -268 -372 rlineto
            return
          </CharString>
          <CharString index="27">
            -78 callsubr
            endchar
          </CharString>
          <CharString index="28">
            rmoveto
            62 37 45 55 55 -37 44 -62 -62 -37 -44 -55 -55 37 -45 62 hvcurveto
            53 vmoveto
            -28 -18 21 26 26 18 20 28 27 19 -20 -26 -26 -19 -21 -27 hvcurveto
            return
          </CharString>
          <CharString index="29">
            -104 callsubr
            -209 -66 callgsubr
            return
          </CharString>
          <CharString index="30">
            733 -104 callsubr
            return
          </CharString>
          <CharString index="31">
            568 109 -378 hlineto
            369 515 rlineto
            62 -533 -109 344 vlineto
            -370 -516 rlineto
            return
          </CharString>
          <CharString index="32">
            rmoveto
            108 110 -61 callsubr
            return
          </CharString>
          <CharString index="33">
            rmoveto
            93 65 29 46 45 hvcurveto
            -51 40 64 -24 89 hhcurveto
            129 1 callgsubr
            -48 -31 -62 -89 -35 50 101 -4 vhcurveto
            356 36 hlineto
            187 -79 81 -150 -74 -57 -20 -39 -41 vhcurveto
            38 -36 -57 21 -82 hhcurveto
            -131 -89 -55 -91 -9 0 -7 1 -6 hvcurveto
            116 14 hlineto
            28 22 31 81 83 17 -35 -45 vhcurveto
            -44 vlineto
            -203 -143 -40 -143 -128 127 -20 70 hvcurveto
            271 331 rmoveto
            84 9 37 40 79 hhcurveto
            63 41 -35 -89 hvcurveto
            -487 -235 rmoveto
            -58 -29 22 42 70 102 16 121 hvcurveto
            -24 vlineto
            -79 -50 -47 -86 vhcurveto
            endchar
          </CharString>
          <CharString index="34">
            28 36 8 8 20 hvcurveto
            82 -47 vlineto
            -29 -14 16 29 hvcurveto
            297 90 98 -90 147 -96 vlineto
            -22 -147 rlineto
            -66 -98 64 -309 hlineto
            return
          </CharString>
          <CharString index="35">
            593 -101 callsubr
            return
          </CharString>
          <CharString index="36">
            613 -93 callsubr
            return
          </CharString>
          <CharString index="37">
            7 hlineto
            10 -70 rlineto
            99 return
          </CharString>
          <CharString index="38">
            -35 callgsubr
            -121 hlineto
            89 -132 -35 callgsubr
            -120 hlineto
            return
          </CharString>
          <CharString index="39">
            rmoveto
            -13 -8 -6 -23 vhcurveto
            -14 -56 64 26 hlineto
            40 3 36 16 38 vvcurveto
            50 -63 11 -45 -24 -32 -3 -5 -23 vhcurveto
            -42 58 vlineto
            22 12 -4 -15 hvcurveto
            return
          </CharString>
          <CharString index="40">
            rmoveto
            -90 -32 52 113 hvcurveto
            13 vlineto
            114 33 52 89 84 36 -60 -107 vhcurveto
            -12 vlineto
            -106 -35 -59 -85 vhcurveto
            return
          </CharString>
          <CharString index="41">
            -35 callsubr
            -34 callgsubr
            return
          </CharString>
          <CharString index="42">
            139 34 hmoveto
            324 97 hlineto
            -113 22 -63 67 139 vvcurveto
            23 vlineto
            168 75 74 135 135 74 -75 -170 vhcurveto
            -20 vlineto
            -140 -62 -67 -114 -22 vhcurveto
            -96 324 109 -47 vlineto
            -26 -37 -8 -2 -36 hvcurveto
            79 55 50 85 117 vvcurveto
            221 -129 121 -211 -212 -129 -121 -221 -117 49 -85 78 -55 vhcurveto
            3 -39 -37 7 -20 hhcurveto
            -48 hlineto
            endchar
          </CharString>
          <CharString index="43">
            23 331 -12 -98 callgsubr
            return
          </CharString>
          <CharString index="44">
            rlineto
            -64 callgsubr
            return
          </CharString>
          <CharString index="45">
            -107 269 -12 -97 callgsubr
            return
          </CharString>
          <CharString index="46">
            -108 hlineto
            return
          </CharString>
          <CharString index="47">
            65 hlineto
            60 159 rlineto
            116 -125 -127 50 vlineto
            return
          </CharString>
          <CharString index="48">
            93 368 -12 rmoveto
            196 159 159 196 196 -159 159 -196 -196 -159 -159 -196 -196 159 -159 196 hvcurveto
            57 vmoveto
            -164 -132 133 165 164 132 134 164 164 132 -134 -164 -165 -132 -133 -164 hvcurveto
            return
          </CharString>
          <CharString index="49">
            rmoveto
            -56 callgsubr
          </CharString>
          <CharString index="50">
            78 345 686 rmoveto
            -274 -292 -67 -78 67 -316 274 hlineto
            207 126 108 235 235 -126 108 -207 hvcurveto
            202 -353 rmoveto
            -150 -1 -71 -74 -130 hhcurveto
            -146 207 151 78 -151 183 146 hlineto
            130 72 -74 -150 hvcurveto
            endchar
          </CharString>
          <CharString index="51">
            -43 callsubr
            endchar
          </CharString>
          <CharString index="52">
            -369 rmoveto
            236 68 -76 289 -39 hlineto
            -34 -20 -54 -16 -33 -4 rrcurveto
            -49 84 -200 -84 vlineto
            return
          </CharString>
          <CharString index="53">
            78 71 hmoveto
            -89 callgsubr
            return
          </CharString>
          <CharString index="54">
            -157 -75 -79 -140 -139 -75 79 157 vhcurveto
            return
          </CharString>
          <CharString index="55">
            -68 61 -173 rmoveto
            120 106 hlineto
            17 -2 27 -4 40 vhcurveto
            -20 23 31 -9 33 hhcurveto
            61 47 29 53 30 -32 callgsubr
            vlineto
            endchar
          </CharString>
          <CharString index="56">
            432 -128 return
          </CharString>
          <CharString index="57">
            52 78 14 67 46 -44 18 -52 3 hvcurveto
            return
          </CharString>
          <CharString index="58">
            rmoveto
            120 115 -64 callgsubr
            return
          </CharString>
          <CharString index="59">
            -114 -39 -56 -96 -97 -38 56 114 vhcurveto
            return
          </CharString>
          <CharString index="60">
            526 -120 return
          </CharString>
          <CharString index="61">
            128 296 324 -296 128 686 -128 -280 -324 280 -128 hlineto
            return
          </CharString>
          <CharString index="62">
            rmoveto
            76 74 42 64 -42 158 -43 hlineto
            -8 -33 -13 -34 -12 -26 rrcurveto
            -65 -80 vlineto
            26 39 51 101 20 88 rrcurveto
            -81 hlineto
            -22 -89 -28 -78 -39 -66 rrcurveto
            -59 153 vlineto
            endchar
          </CharString>
          <CharString index="63">
            606 -87 callsubr
            return
          </CharString>
          <CharString index="64">
            127 686 -127 hlineto
            return
          </CharString>
          <CharString index="65">
            559 -79 callsubr
            return
          </CharString>
          <CharString index="66">
            -33 242 hmoveto
            -33 callsubr
            return
          </CharString>
          <CharString index="67">
            -101 callgsubr
            31 return
          </CharString>
          <CharString index="68">
            -19 callgsubr
            -23 -30 callsubr
            21 23 37 vvcurveto
            66 -50 36 -73 -70 -52 -40 -62 vhcurveto
            -14 76 10 vlineto
            28 20 return
          </CharString>
          <CharString index="69">
            123 rlineto
            104 -120 -115 48 vlineto
            return
          </CharString>
          <CharString index="70">
            120 -2 callsubr
            hlineto
            return
          </CharString>
          <CharString index="71">
            rlineto
            -103 hlineto
            return
          </CharString>
          <CharString index="72">
            686 rlineto
            return
          </CharString>
          <CharString index="73">
            -306 hlineto
            return
          </CharString>
          <CharString index="74">
            127 576 -43 callgsubr
            hlineto
            return
          </CharString>
          <CharString index="75">
            124 127 -124 hlineto
            return
          </CharString>
          <CharString index="76">
            114 hvcurveto
            return
          </CharString>
          <CharString index="77">
            28 -37 14 hvcurveto
            4 vlineto
            32 16 return
          </CharString>
          <CharString index="78">
            70 hmoveto
            -37 callsubr
            return
          </CharString>
          <CharString index="79">
            hvcurveto
            -79 hlineto
            return
          </CharString>
          <CharString index="80">
            115 vhcurveto
            return
          </CharString>
          <CharString index="81">
            -88 118 -77 callgsubr
            return
          </CharString>
          <CharString index="82">
            126 rmoveto
            89 hlineto
            -115 200 115 200 rlineto
            -89 hlineto
            -143 -200 rlineto
            return
          </CharString>
          <CharString index="83">
            126 rmoveto
            89 hlineto
            143 200 -143 200 rlineto
            -89 hlineto
            115 -200 rlineto
            return
          </CharString>
          <CharString index="84">
            129 -1 3 rlineto
            return
          </CharString>
          <CharString index="85">
            120 306 return
          </CharString>
          <CharString index="86">
            608 -49 callsubr
            return
          </CharString>
          <CharString index="87">
            132 rlineto
            147 -132 -147 vlineto
            return
          </CharString>
          <CharString index="88">
            rmoveto
            125 127 -50 hlineto
            50 148 rlineto
            -65 hlineto
            -60 -159 rlineto
            return
          </CharString>
          <CharString index="89">
            23 21 5 9 24 return
          </CharString>
          <CharString index="90">
            -34 callsubr
            -75 -52 -53 -66 -60 -37 25 75 vhcurveto
            334 -120 return
          </CharString>
          <CharString index="91">
            rmoveto
            255 68 -34 callgsubr
            9 13 return
          </CharString>
          <CharString index="92">
            0 58 72 83 vhcurveto
            75 56 -60 73 hhcurveto
            94 47 72 0 hvcurveto
            return
          </CharString>
          <CharString index="93">
            -182 rmoveto
            return
          </CharString>
          <CharString index="94">
            -100 callsubr
            -33 return
          </CharString>
          <CharString index="95">
            -100 callsubr
            -34 return
          </CharString>
          <CharString index="96">
            472 97 -472 hlineto
            return
          </CharString>
          <CharString index="97">
            hlineto
            17 -188 -205 17 rlineto
            -106 vlineto
            205 18 return
          </CharString>
          <CharString index="98">
            -7 callsubr
            endchar
          </CharString>
          <CharString index="99">
            -14 callsubr
            22 22 5 9 23 hvcurveto
            54 -26 vlineto
            return
          </CharString>
          <CharString index="100">
            29 hvcurveto
            11 -76 -9 vlineto
            -68 47 -43 84 vhcurveto
            return
          </CharString>
          <CharString index="101">
            43 35 14 46 vhcurveto
            62 vlineto
            -96 -82 -18 -94 return
          </CharString>
          <CharString index="102">
            hlineto
            128 return
          </CharString>
          <CharString index="103">
            vlineto
            -380 148 380 148 rlineto
            return
          </CharString>
          <CharString index="104">
            -14 callsubr
            23 22 5 9 24 hvcurveto
            54 return
          </CharString>
          <CharString index="105">
            723 -120 return
          </CharString>
          <CharString index="106">
            -407 rlineto
            return
          </CharString>
          <CharString index="107">
            195 hlineto
            152 79 87 135 return
          </CharString>
          <CharString index="108">
            hhcurveto
            -215 -130 -114 -241 return
          </CharString>
          <CharString index="109">
            -188 207 -97 -207 -187 return
          </CharString>
          <CharString index="110">
            rrcurveto
            -47 -36 -50 -37 -64 vvcurveto
            endchar
          </CharString>
        <CharString name=".notdef">
          -143 0 vmoveto
          500 700 -500 hlineto
          250 -305 rmoveto
          -170 255 rlineto
          340 hlineto
          -370 -555 rmoveto
          510 vlineto
          170 -255 rlineto
          230 -255 rmoveto
          -170 255 170 255 rlineto
          -370 -555 rmoveto
          170 255 170 -255 rlineto
          endchar
        </CharString>
        <CharString name="A">
          59 4 hmoveto
          -106 callsubr
          endchar
        </CharString>
        <CharString name="AE">
          356 -4 hmoveto
          -54 callgsubr
        </CharString>
        <CharString name="AEacute">
          356 452 -82 callsubr
          -537 -868 rmoveto
          -54 callgsubr
        </CharString>
        <CharString name="Aacute">
          59 304 -82 callsubr
          -381 -868 -102 callgsubr
        </CharString>
        <CharString name="Abreve">
          59 351 738 -91 callgsubr
        </CharString>
        <CharString name="Acircumflex">
          59 192 -77 callsubr
          -294 -868 -102 callgsubr
        </CharString>
        <CharString name="Adieresis">
          59 198 -70 callgsubr
          -396 -868 -102 callgsubr
        </CharString>
        <CharString name="Agrave">
          59 304 736 -86 callgsubr
          -192 -865 -102 callgsubr
        </CharString>
        <CharString name="Amacron">
          59 199 762 -62 callgsubr
          -195 -844 -102 callgsubr
        </CharString>
        <CharString name="Aogonek">
          59 624 -14 callsubr
          24 26 5 9 26 hvcurveto
          54 -35 vlineto
          -37 -17 18 31 25 16 24 15 16 hvcurveto
          57 hlineto
          -267 -66 callsubr
          -267 -686 rlineto
          132 hlineto
          55 149 rlineto
          314 hlineto
          56 -149 rlineto
          -24 -23 -21 -28 -42 vvcurveto
          -68 53 -21 55 vhcurveto
          -393 439 rmoveto
          70 188 14 37 25 80 5 14 rlinecurve
          5 hlineto
          5 -14 25 -81 14 -36 70 -188 rcurveline
          endchar
        </CharString>
        <CharString name="Aring">
          59 352 704 -79 callsubr
          -348 -757 -102 callgsubr
        </CharString>
        <CharString name="Aringacute">
          59 300 861 -100 callsubr
          -377 -993 rmoveto
          132 hlineto
          55 149 rlineto
          314 hlineto
          56 -149 rlineto
          138 hlineto
          -265 681 rlineto
          10 15 7 19 21 vvcurveto
          55 -38 45 -62 -62 -37 -45 -55 -21 6 -19 11 -15 vhcurveto
          83 8 rmoveto
          -28 -19 21 26 27 18 20 28 28 19 -20 -27 -26 -19 -21 -27 hvcurveto
          -121 -432 rmoveto
          70 188 14 37 25 80 5 14 rlinecurve
          5 hlineto
          5 -14 25 -81 14 -36 70 -188 rcurveline
          endchar
        </CharString>
        <CharString name="Atilde">
          59 185 752 rmoveto
          -103 callgsubr
          -181 -752 -102 callgsubr
        </CharString>
        <CharString name="B">
          59 71 hmoveto
          372 hlineto
          117 93 59 130 89 -55 62 -76 16 hvcurveto
          4 vlineto
          63 21 49 57 79 vvcurveto
          101 -81 68 -110 vhcurveto
          -372 -5 callsubr
          -281 rmoveto
          172 218 vlineto
          52 34 -28 -59 -48 -34 -37 -60 hvcurveto
          -210 -296 rmoveto
          189 220 vlineto
          69 34 -37 -58 -65 -40 -29 -56 hvcurveto
          endchar
        </CharString>
        <CharString name="C">
          78 376 -12 -88 callgsubr
        </CharString>
        <CharString name="CR">
          -644 endchar
        </CharString>
        <CharString name="Cacute">
          -1 callgsubr
          -82 callsubr
          -18 -880 -88 callgsubr
        </CharString>
        <CharString name="Cacute.loclPLK">
          -1 callgsubr
          736 -68 callgsubr
          35 -879 -88 callgsubr
        </CharString>
        <CharString name="Ccaron">
          78 307 733 -96 callsubr
          175 -880 -88 callgsubr
        </CharString>
        <CharString name="Ccedilla">
          78 378 96 rmoveto
          -139 -64 77 160 hvcurveto
          20 vlineto
          157 65 80 138 100 70 -55 -102 vhcurveto
          131 hlineto
          179 -132 86 -171 -210 -122 -114 -241 -229 105 -109 182 -15 vhcurveto
          -10 -67 rlineto
          44 hlineto
          32 9 -8 -16 -19 -16 -5 -27 hvcurveto
          -92 -49 hlineto
          -5 29 38 -3 33 hhcurveto
          -50 callsubr
          4 23 rlineto
          156 10 114 84 168 vvcurveto
          -126 hlineto
          -100 -69 -55 -106 vhcurveto
          endchar
        </CharString>
        <CharString name="Ccircumflex">
          78 201 -77 callsubr
          69 -880 -88 callgsubr
        </CharString>
        <CharString name="Cdotaccent">
          78 301 751 -87 callsubr
          75 -881 -88 callgsubr
        </CharString>
        <CharString name="D">
          78 71 hmoveto
          -81 callgsubr
          endchar
        </CharString>
        <CharString name="Dcaron">
          78 307 733 -96 callsubr
          -130 -868 rmoveto
          -81 callgsubr
          endchar
        </CharString>
        <CharString name="Dcroat">
          -57 callsubr
        </CharString>
        <CharString name="E">
          23 71 hmoveto
          -93 callgsubr
          endchar
        </CharString>
        <CharString name="Eacute">
          23 286 -82 callsubr
          -296 -50 callgsubr
        </CharString>
        <CharString name="Ebreve">
          23 333 -72 callgsubr
          -262 -738 -84 callsubr
        </CharString>
        <CharString name="Ecaron">
          23 280 733 -96 callsubr
          -103 -50 callgsubr
        </CharString>
        <CharString name="Ecircumflex">
          23 174 733 -80 callsubr
        </CharString>
        <CharString name="Edieresis">
          23 180 -70 callgsubr
          -311 -50 callgsubr
        </CharString>
        <CharString name="Edotaccent">
          23 274 751 -87 callsubr
          -203 -869 -84 callsubr
        </CharString>
        <CharString name="Egrave">
          23 286 736 -86 callgsubr
          -107 -865 -84 callsubr
        </CharString>
        <CharString name="Emacron">
          23 181 762 -62 callgsubr
          -110 -844 -84 callsubr
        </CharString>
        <CharString name="Eng">
          78 523 -14 callsubr
          99 29 68 66 hvcurveto
          734 -123 -406 vlineto
          -13 2 -35 -6 vvcurveto
          -5 -2 -3 3 -20 36 -11 16 rlinecurve
          -298 407 rlineto
          -122 -686 123 hlineto
          1 409 rlineto
          17 -2 33 -1 5 vhcurveto
          5 2 3 -3 15 -29 17 -22 rlinecurve
          296 -412 rlineto
          -40 vlineto
          -29 -15 -16 -30 vhcurveto
          -48 -82 hlineto
          -8 21 37 -7 30 hhcurveto
          endchar
        </CharString>
        <CharString name="Eogonek">
          23 543 -3 callsubr
          -26 vlineto
          -36 -14 20 21 30 38 33 38 10 hvcurveto
          109 -413 187 363 109 -363 172 407 109 -535 -686 439 vlineto
          -40 -23 -30 -29 -46 vvcurveto
          -64 58 -20 45 vhcurveto
          endchar
        </CharString>
        <CharString name="Eth">
          -57 callsubr
        </CharString>
        <CharString name="Euro">
          -88 415 -12 rmoveto
          37 36 5 10 34 hvcurveto
          97 vlineto
          -9 -27 -28 -5 -30 hhcurveto
          -103 -84 52 95 -34 hvcurveto
          234 75 -252 hlineto
          -1 11 0 12 12 vvcurveto
          12 0 12 1 11 vhcurveto
          252 75 -234 hlineto
          95 34 84 52 103 hhcurveto
          30 28 -5 -9 27 hvcurveto
          97 vlineto
          9 -34 -36 6 -37 hhcurveto
          -167 -122 -93 -152 -39 hvcurveto
          -74 -75 62 hlineto
          -1 -12 0 -11 -12 vvcurveto
          -12 0 -12 1 -11 vhcurveto
          -62 -75 74 hlineto
          -153 39 122 -92 167 hhcurveto
          endchar
        </CharString>
        <CharString name="F">
          -33 71 hmoveto
          128 282 329 109 -329 186 365 109 -493 hlineto
          endchar
        </CharString>
        <CharString name="G">
          134 366 261 -99 callsubr
          endchar
        </CharString>
        <CharString name="G_tilde.loclGUA">
          134 323 787 -74 callgsubr
          43 -526 -99 callsubr
          endchar
        </CharString>
        <CharString name="Gbreve">
          134 388 -72 callgsubr
          -22 -477 -99 callsubr
          endchar
        </CharString>
        <CharString name="Gcaron">
          134 443 733 rmoveto
          105 135 -36 callsubr
          -56 -72 -57 72 -36 callsubr
          106 -135 rlineto
          31 -472 -99 callsubr
          endchar
        </CharString>
        <CharString name="Gcircumflex">
          134 389 805 rmoveto
          56 -72 rlineto
          103 hlineto
          -105 135 rlineto
          -61 callsubr
          -106 -135 rlineto
          103 hlineto
          34 -472 -99 callsubr
          endchar
        </CharString>
        <CharString name="Gcommaaccent">
          134 366 261 -99 callsubr
          -37 -509 rmoveto
          48 hlineto
          -46 -88 rlineto
          62 hlineto
          56 98 rlineto
          86 -120 vlineto
          endchar
        </CharString>
        <CharString name="Gdotaccent">
          134 447 869 rmoveto
          -118 -118 118 hlineto
          -81 -490 -99 callsubr
          endchar
        </CharString>
        <CharString name="H">
          78 71 hmoveto
          -46 callsubr
          endchar
        </CharString>
        <CharString name="Hbar">
          78 71 hmoveto
          128 296 324 -296 128 514 63 84 -63 88 -128 -88 -324 88 -128 -88 -63 -84 63 -5 callsubr
          -108 rmoveto
          108 324 -108 vlineto
          endchar
        </CharString>
        <CharString name="Hcircumflex">
          78 201 -77 callsubr
          -236 -868 rmoveto
          -46 callsubr
          endchar
        </CharString>
        <CharString name="I">
          -366 76 hmoveto
          -56 callsubr
        </CharString>
        <CharString name="IJ">
          171 76 hmoveto
          -43 callsubr
          451 -698 -79 callgsubr
        </CharString>
        <CharString name="Iacute">
          -366 91 -82 callsubr
          -96 -868 -57 callgsubr
        </CharString>
        <CharString name="Iacute_J.loclNLD">
          171 91 -82 callsubr
          464 -132 -100 callsubr
          -641 -868 rmoveto
          -43 callsubr
          451 -698 -79 callgsubr
        </CharString>
        <CharString name="Ibreve">
          -366 138 -72 callgsubr
          -62 -738 -57 callgsubr
        </CharString>
        <CharString name="Icircumflex">
          -366 -21 -77 callsubr
          -9 -868 -57 callgsubr
        </CharString>
        <CharString name="Idieresis">
          -366 -15 -70 callgsubr
          -111 -868 -57 callgsubr
        </CharString>
        <CharString name="Idotaccent">
          -366 79 751 -87 callsubr
          -3 -869 -57 callgsubr
        </CharString>
        <CharString name="Igrave">
          -366 91 736 -86 callgsubr
          93 -865 -57 callgsubr
        </CharString>
        <CharString name="Imacron">
          -366 -14 762 -62 callgsubr
          90 -844 -57 callgsubr
        </CharString>
        <CharString name="Iogonek">
          -366 183 -122 rmoveto
          -36 -14 25 27 28 21 28 13 14 hvcurveto
          36 686 -127 -686 11 hlineto
          -26 -25 -23 -29 -47 -8 callgsubr
          vlineto
          endchar
        </CharString>
        <CharString name="Itilde">
          -366 -28 752 rmoveto
          -103 callgsubr
          104 -752 -57 callgsubr
        </CharString>
        <CharString name="J">
          -107 249 -12 -79 callgsubr
        </CharString>
        <CharString name="Jcircumflex">
          -107 246 -77 callsubr
          -103 -880 -79 callgsubr
        </CharString>
        <CharString name="K">
          -45 callgsubr
          endchar
        </CharString>
        <CharString name="Kcommaaccent">
          -45 callgsubr
          223 -916 -73 callgsubr
        </CharString>
        <CharString name="L">
          71 hmoveto
          -51 callgsubr
          endchar
        </CharString>
        <CharString name="Lacute">
          87 -82 callsubr
          -97 -868 rmoveto
          -51 callgsubr
          endchar
        </CharString>
        <CharString name="Lcaron">
          71 hmoveto
          -51 callgsubr
          271 -227 rmoveto
          62 hlineto
          58 -38 callsubr
          endchar
        </CharString>
        <CharString name="Lcommaaccent">
          71 hmoveto
          -51 callgsubr
          188 -916 -73 callgsubr
        </CharString>
        <CharString name="Ldot">
          71 hmoveto
          -51 callgsubr
          275 -287 -49 callgsubr
          endchar
        </CharString>
        <CharString name="Lslash">
          71 hmoveto
          492 111 -364 226 hlineto
          150 99 rlineto
          95 vlineto
          -150 -99 rlineto
          254 -128 -339 vlineto
          -69 -45 rlineto
          -95 vlineto
          69 46 rlineto
          endchar
        </CharString>
        <CharString name="M">
          189 71 hmoveto
          122 443 hlineto
          27 -4 89 0 vhcurveto
          5 hlineto
          5 -18 7 -33 8 -25 140 -483 rcurveline
          118 hlineto
          141 483 8 27 8 31 4 18 rlinecurve
          6 hlineto
          0 -5 -90 -26 vvcurveto
          -443 128 686 -190 vlineto
          -120 -409 rlineto
          -11 -38 -17 -99 0 vvcurveto
          -5 hlineto
          0 -19 93 -13 44 vhcurveto
          -119 409 rlineto
          -197 hlineto
          endchar
        </CharString>
        <CharString name="N">
          78 -53 callgsubr
          endchar
        </CharString>
        <CharString name="NULL">
          -644 endchar
        </CharString>
        <CharString name="Nacute">
          -1 callgsubr
          -82 callsubr
          -323 -868 rmoveto
          -96 callgsubr
          endchar
        </CharString>
        <CharString name="Nacute.loclPLK">
          -1 callgsubr
          736 -68 callgsubr
          -270 -867 rmoveto
          -96 callgsubr
          endchar
        </CharString>
        <CharString name="Ncaron">
          78 307 733 -96 callsubr
          -130 -868 rmoveto
          -96 callgsubr
          endchar
        </CharString>
        <CharString name="Ncommaaccent">
          78 -53 callgsubr
          232 -916 -73 callgsubr
        </CharString>
        <CharString name="Ntilde">
          78 194 752 rmoveto
          -103 callgsubr
          -123 -752 rmoveto
          -96 callgsubr
          endchar
        </CharString>
        <CharString name="O">
          134 389 -12 -106 callgsubr
          endchar
        </CharString>
        <CharString name="OE">
          356 316 -12 rmoveto
          72 60 24 49 48 hvcurveto
          -61 449 108 -321 189 267 108 -267 173 315 108 -443 -62 vlineto
          50 -46 -59 24 -75 hhcurveto
          -170 -102 -121 -234 -234 102 -121 170 hvcurveto
          24 108 rmoveto
          -113 -52 75 172 172 52 75 113 96 60 -66 -181 -181 -60 -66 -96 hvcurveto
          endchar
        </CharString>
        <CharString name="Oacute">
          134 341 -82 callsubr
          -33 -880 -106 callgsubr
          endchar
        </CharString>
        <CharString name="Oacute.loclPLK">
          134 341 736 -68 callgsubr
          20 -879 -106 callgsubr
          endchar
        </CharString>
        <CharString name="Obreve">
          134 388 -72 callgsubr
          1 -750 -106 callgsubr
          endchar
        </CharString>
        <CharString name="Ocircumflex">
          134 229 -77 callsubr
          54 -880 -106 callgsubr
          endchar
        </CharString>
        <CharString name="Odieresis">
          134 235 -70 callgsubr
          -48 -880 -106 callgsubr
          endchar
        </CharString>
        <CharString name="Ograve">
          134 341 736 -86 callgsubr
          156 -877 -106 callgsubr
          endchar
        </CharString>
        <CharString name="Ohorn">
          134 645 828 -97 callsubr
          endchar
        </CharString>
        <CharString name="Ohungarumlaut">
          134 260 736 -69 callsubr
          -107 -880 -106 callgsubr
          endchar
        </CharString>
        <CharString name="Omacron">
          134 236 762 -62 callgsubr
          153 -856 -106 callgsubr
          endchar
        </CharString>
        <CharString name="Oslash">
          134 47 -49 -71 callgsubr
        </CharString>
        <CharString name="Oslashacute">
          134 341 -82 callsubr
          -375 -917 -71 callgsubr
        </CharString>
        <CharString name="Otilde">
          134 222 752 rmoveto
          -103 callgsubr
          167 -764 -106 callgsubr
          endchar
        </CharString>
        <CharString name="P">
          23 71 hmoveto
          128 245 0 callsubr
          134 -74 85 -150 hvcurveto
          -330 -5 callsubr
          -332 -18 callgsubr
        </CharString>
        <CharString name="Q">
          134 538 -130 rmoveto
          171 hlineto
          -153 148 rlineto
          114 48 65 107 170 vvcurveto
          241 -131 114 -215 -215 -130 -114 -241 -241 130 -114 215 11 12 0 1 11 vhcurveto
          -34 107 rmoveto
          -139 -75 79 157 hvcurveto
          21 vlineto
          157 76 80 138 139 76 -80 -157 vhcurveto
          -5 callgsubr
        </CharString>
        <CharString name="R">
          -54 callsubr
          endchar
        </CharString>
        <CharString name="Racute">
          -1 callgsubr
          -82 callsubr
          -323 -868 rmoveto
          -89 callgsubr
          endchar
        </CharString>
        <CharString name="Rcaron">
          78 307 733 -96 callsubr
          -130 -868 rmoveto
          -89 callgsubr
          endchar
        </CharString>
        <CharString name="Rcommaaccent">
          -54 callsubr
          -120 -603 -73 callgsubr
        </CharString>
        <CharString name="S">
          -64 callsubr
          endchar
        </CharString>
        <CharString name="Sacute">
          23 286 -82 callsubr
          -36 -880 -98 callgsubr
          endchar
        </CharString>
        <CharString name="Sacute.loclPLK">
          23 286 736 -68 callgsubr
          17 -879 -98 callgsubr
          endchar
        </CharString>
        <CharString name="Scaron">
          23 280 733 -96 callsubr
          157 -880 -98 callgsubr
          endchar
        </CharString>
        <CharString name="Scedilla">
          23 336 -14 callsubr
          -50 callsubr
          4 24 rlineto
          145 9 102 61 141 246 -431 -69 136 vvcurveto
          49 55 27 90 85 57 -34 -58 vhcurveto
          -11 126 12 vlineto
          140 -120 59 -147 -157 -118 -61 -128 vhcurveto
          -253 431 82 -155 vvcurveto
          -52 -47 -35 -111 -100 -61 39 67 vhcurveto
          1 18 rlineto
          -129 hlineto
          -4 -1 -10 -7 vvcurveto
          -134 114 -67 139 -8 vhcurveto
          -11 -67 -65 callgsubr
          endchar
        </CharString>
        <CharString name="Scircumflex">
          -44 callgsubr
          51 -880 -98 callgsubr
          endchar
        </CharString>
        <CharString name="Scommaaccent">
          -64 callsubr
          -55 -218 -73 callgsubr
        </CharString>
        <CharString name="T">
          -41 callsubr
          endchar
        </CharString>
        <CharString name="Tbar">
          -33 242 hmoveto
          127 362 95 84 -95 130 -43 callgsubr
          -130 -95 -84 95 hlineto
          endchar
        </CharString>
        <CharString name="Tcaron">
          -33 252 733 -96 callsubr
          96 -868 rmoveto
          -33 callsubr
          endchar
        </CharString>
        <CharString name="Thorn">
          23 71 hmoveto
          128 134 0 callsubr
          133 -74 86 -150 hvcurveto
          -202 111 -128 -5 callsubr
          -443 -18 callgsubr
        </CharString>
        <CharString name="U">
          78 360 -12 rmoveto
          -102 callsubr
          endchar
        </CharString>
        <CharString name="Uacute">
          -1 callgsubr
          -82 callsubr
          -34 -880 rmoveto
          -102 callsubr
          endchar
        </CharString>
        <CharString name="Ubreve">
          78 360 -72 callgsubr
          -750 vmoveto
          -102 callsubr
          endchar
        </CharString>
        <CharString name="Ucircumflex">
          78 201 -77 callsubr
          53 -880 rmoveto
          -102 callsubr
          endchar
        </CharString>
        <CharString name="Udieresis">
          78 207 -70 callgsubr
          -49 -880 rmoveto
          -102 callsubr
          endchar
        </CharString>
        <CharString name="Ugrave">
          -1 callgsubr
          736 -86 callgsubr
          155 -877 rmoveto
          -102 callsubr
          endchar
        </CharString>
        <CharString name="Uhorn">
          78 613 868 -87 callgsubr
          endchar
        </CharString>
        <CharString name="Uhungarumlaut">
          78 232 736 -69 callsubr
          -108 -880 rmoveto
          -102 callsubr
          endchar
        </CharString>
        <CharString name="Umacron">
          78 208 762 -62 callgsubr
          152 -856 rmoveto
          -102 callsubr
          endchar
        </CharString>
        <CharString name="Uogonek">
          78 435 -8 callsubr
          -37 -13 25 27 22 12 22 12 15 hvcurveto
          127 25 74 84 148 vvcurveto
          -51 callsubr
          -429 vlineto
          -106 -61 -55 -102 -102 -59 55 106 vhcurveto
          429 -128 -432 vlineto
          -179 108 -87 180 vhcurveto
          -16 -21 -13 -25 -35 vvcurveto
          -68 55 -21 50 vhcurveto
          endchar
        </CharString>
        <CharString name="Uring">
          78 361 704 -79 callsubr
          -1 -769 rmoveto
          -102 callsubr
          endchar
        </CharString>
        <CharString name="Utilde">
          78 194 752 rmoveto
          -103 callgsubr
          166 -764 rmoveto
          -102 callsubr
          endchar
        </CharString>
        <CharString name="V">
          23 259 hmoveto
          149 hlineto
          250 -35 callsubr
          -132 hlineto
          -146 -418 -12 -33 -25 -82 -3 -10 rlinecurve
          -5 hlineto
          -4 10 -26 81 -12 33 -147 419 rcurveline
          -138 hlineto
          endchar
        </CharString>
        <CharString name="W">
          300 193 hmoveto
          -92 callgsubr
        </CharString>
        <CharString name="Wacute">
          300 424 -82 callsubr
          -312 -868 rmoveto
          -92 callgsubr
        </CharString>
        <CharString name="Wcircumflex">
          300 312 -77 callsubr
          -225 -868 rmoveto
          -92 callgsubr
        </CharString>
        <CharString name="Wdieresis">
          300 318 -70 callgsubr
          -327 -868 rmoveto
          -92 callgsubr
        </CharString>
        <CharString name="Wgrave">
          300 424 736 -86 callgsubr
          -123 -865 rmoveto
          -92 callgsubr
        </CharString>
        <CharString name="X">
          23 2 hmoveto
          147 hlineto
          176 266 rlineto
          6 hlineto
          179 -266 rlineto
          155 hlineto
          -250 361 226 325 rlineto
          -147 hlineto
          -154 -230 rlineto
          -6 hlineto
          -154 230 rlineto
          -156 hlineto
          226 -326 rlineto
          endchar
        </CharString>
        <CharString name="Y">
          23 271 hmoveto
          -85 callgsubr
          endchar
        </CharString>
        <CharString name="Y.loclGUA">
          23 324 -12 -95 callgsubr
        </CharString>
        <CharString name="Yacute">
          23 286 -82 callsubr
          -96 -868 rmoveto
          -85 callgsubr
          endchar
        </CharString>
        <CharString name="Yacute.loclGUA">
          23 286 -82 callsubr
          -43 -880 -95 callgsubr
        </CharString>
        <CharString name="Ycircumflex">
          -44 callgsubr
          -9 -868 rmoveto
          -85 callgsubr
          endchar
        </CharString>
        <CharString name="Ycircumflex.loclGUA">
          -44 callgsubr
          44 -880 -95 callgsubr
        </CharString>
        <CharString name="Ydieresis">
          23 180 -70 callgsubr
          -111 -868 rmoveto
          -85 callgsubr
          endchar
        </CharString>
        <CharString name="Ydieresis.loclGUA">
          23 180 -70 callgsubr
          -58 -880 -95 callgsubr
        </CharString>
        <CharString name="Ygrave">
          23 286 736 -86 callgsubr
          93 -865 rmoveto
          -85 callgsubr
          endchar
        </CharString>
        <CharString name="Ygrave.loclGUA">
          23 286 736 -86 callgsubr
          146 -877 -95 callgsubr
        </CharString>
        <CharString name="Z">
          -33 19 hmoveto
          -76 callsubr
          endchar
        </CharString>
        <CharString name="Zacute">
          -33 258 -82 callsubr
          -320 -868 rmoveto
          -76 callsubr
          endchar
        </CharString>
        <CharString name="Zacute.loclPLK">
          -33 258 736 -68 callgsubr
          -267 -867 rmoveto
          -76 callsubr
          endchar
        </CharString>
        <CharString name="Zcaron">
          -33 252 733 -96 callsubr
          -127 -868 rmoveto
          -76 callsubr
          endchar
        </CharString>
        <CharString name="Zdotaccent">
          -33 246 751 -87 callsubr
          -227 -869 rmoveto
          -76 callsubr
          endchar
        </CharString>
        <CharString name="a">
          -88 198 -12 -107 callsubr
        </CharString>
        <CharString name="aacute">
          -88 230 591 -100 callsubr
          -113 -735 -107 callsubr
        </CharString>
        <CharString name="abreve">
          -88 277 593 -100 callgsubr
        </CharString>
        <CharString name="acircumflex">
          -26 callsubr
          -26 -735 -107 callsubr
        </CharString>
        <CharString name="acute">
          -311 75 591 -100 callsubr
          endchar
        </CharString>
        <CharString name="acute.loclPLK">
          -311 95 591 -68 callgsubr
          endchar
        </CharString>
        <CharString name="adieresis">
          -88 124 -71 callsubr
          -128 -735 -107 callsubr
        </CharString>
        <CharString name="ae">
          245 228 -12 -74 callsubr
        </CharString>
        <CharString name="aeacute">
          245 397 591 -100 callsubr
          -250 -735 -74 callsubr
        </CharString>
        <CharString name="agrave">
          -88 230 591 -86 callgsubr
          76 -732 -107 callsubr
        </CharString>
        <CharString name="amacron">
          -88 125 617 -62 callgsubr
          73 -711 -107 callsubr
        </CharString>
        <CharString name="ampersand">
          59 315 -12 rmoveto
          176 94 84 129 hvcurveto
          98 91 98 -211 -199 vlineto
          -72 -48 -39 -98 -95 -57 33 75 84 66 20 71 vhcurveto
          64 98 -66 hlineto
          -64 -57 35 65 68 54 34 89 89 52 -31 -67 hvcurveto
          -16 120 25 vlineto
          114 -106 74 -153 -160 -107 -66 -122 -84 50 -41 68 -29 vhcurveto
          -4 vlineto
          -77 -22 -57 -52 -94 vvcurveto
          -122 113 -74 159 vhcurveto
          endchar
        </CharString>
        <CharString name="aogonek">
          -88 477 -14 callsubr
          31 31 11 3 9 hvcurveto
          54 -27 vlineto
          -38 -12 21 23 41 47 21 30 12 hvcurveto
          82 -32 vlineto
          -18 -17 10 25 hvcurveto
          251 vlineto
          105 -68 61 -142 -128 -86 -55 -91 -9 0 -7 1 -6 vhcurveto
          116 14 hlineto
          28 20 31 77 74 16 -35 -45 vhcurveto
          -44 vlineto
          -193 -137 -40 -143 -128 107 -20 60 82 51 29 43 35 -46 callgsubr
          8 -31 21 -23 31 -10 rrcurveto
          -32 -23 -25 -29 -44 vvcurveto
          -62 50 -20 51 vhcurveto
          -243 266 rmoveto
          -53 -27 22 42 70 93 16 -31 callsubr
          -24 vlineto
          -76 -47 -50 -80 vhcurveto
          endchar
        </CharString>
        <CharString name="approxequal">
          -95 31 259 rmoveto
          -15 callsubr
          111 vlineto
          0 -58 -73 -83 vhcurveto
          -75 -56 61 -73 hhcurveto
          -94 -47 -73 0 hvcurveto
          -322 vmoveto
          -15 callsubr
          110 vlineto
          0 -58 -72 -83 vhcurveto
          -75 -56 60 -73 hhcurveto
          -94 -47 -72 0 hvcurveto
          endchar
        </CharString>
        <CharString name="aring">
          -88 278 -42 callsubr
          -80 -624 -107 callsubr
        </CharString>
        <CharString name="aringacute">
          -88 230 779 -13 callsubr
          -352 -79 callsubr
          -80 -624 -107 callsubr
        </CharString>
        <CharString name="arrowboth">
          356 239 72 rmoveto
          49 hlineto
          -53 132 rlineto
          534 hlineto
          -55 -132 rlineto
          49 hlineto
          197 170 rlineto
          21 vlineto
          -197 170 rlineto
          -49 hlineto
          55 -132 rlineto
          -534 hlineto
          53 132 -7 callgsubr
        </CharString>
        <CharString name="arrowdown">
          -144 241 -207 -13 callgsubr
          728 -95 -728 vlineto
          -133 55 rlineto
          -48 vlineto
          endchar
        </CharString>
        <CharString name="arrowleft">
          356 239 72 rmoveto
          49 hlineto
          -55 132 rlineto
          727 96 -727 hlineto
          55 133 -7 callgsubr
        </CharString>
        <CharString name="arrowright">
          356 714 72 rmoveto
          49 hlineto
          197 169 rlineto
          21 vlineto
          -197 171 rlineto
          -49 hlineto
          55 -133 rlineto
          -727 -96 727 hlineto
          endchar
        </CharString>
        <CharString name="arrowup">
          -144 203 -207 rmoveto
          96 727 hlineto
          132 -55 rlineto
          49 vlineto
          -169 -30 callgsubr
          55 rlineto
          endchar
        </CharString>
        <CharString name="arrowupdn">
          -144 239 -207 rmoveto
          21 hlineto
          170 197 rlineto
          49 vlineto
          -133 -55 rlineto
          534 vlineto
          133 -53 rlineto
          49 vlineto
          -170 -30 callgsubr
          53 rlineto
          -534 vlineto
          -132 55 rlineto
          -49 vlineto
          endchar
        </CharString>
        <CharString name="arrowupdnbse">
          -144 239 -112 -13 callgsubr
          440 vlineto
          133 -53 rlineto
          49 vlineto
          -170 -30 callgsubr
          53 rlineto
          -440 vlineto
          -132 55 rlineto
          -48 vlineto
          -318 vmoveto
          361 73 -361 hlineto
          endchar
        </CharString>
        <CharString name="asciicircum">
          -175 25 294 rmoveto
          103 hlineto
          106 286 108 -286 rlineto
          103 hlineto
          -157 392 rlineto
          -107 hlineto
          endchar
        </CharString>
        <CharString name="asciitilde">
          -60 41 203 rmoveto
          0 60 73 85 vhcurveto
          78 58 -61 76 hhcurveto
          97 48 73 0 hvcurveto
          109 vlineto
          0 -60 -72 -85 vhcurveto
          -78 -58 60 -76 hhcurveto
          -97 -48 -72 0 hvcurveto
          endchar
        </CharString>
        <CharString name="asterisk">
          -255 151 362 rmoveto
          83 hlineto
          -17 119 96 -74 41 71 -112 46 112 47 -41 70 -96 -73 17 118 rlineto
          -83 hlineto
          17 -119 -96 74 -41 -70 112 -47 -112 -46 41 -71 96 74 rlineto
          endchar
        </CharString>
        <CharString name="at">
          345 474 -153 rmoveto
          50 91 11 16 49 hvcurveto
          76 vlineto
          -18 -42 -95 -14 -53 hhcurveto
          -238 -110 115 228 247 148 119 238 212 148 -89 -216 -167 -69 -50 -59 -26 -17 9 31 hvcurveto
          227 vlineto
          94 -61 55 -128 -115 -77 -50 -83 -8 0 -6 1 -6 vhcurveto
          106 13 hlineto
          25 18 29 67 66 13 -31 -41 vhcurveto
          -41 vlineto
          -172 -122 -36 -131 -116 96 -18 53 73 46 25 38 31 hvcurveto
          6 hlineto
          -13 4 26 -49 87 hhcurveto
          97 136 72 227 268 -187 109 -252 -252 -216 -117 -319 -289 165 -126 264 hvcurveto
          5 261 rmoveto
          -49 -22 21 37 64 83 14 100 hvcurveto
          -25 vlineto
          -66 -41 -45 -71 vhcurveto
          endchar
        </CharString>
        <CharString name="atilde">
          -88 111 607 rmoveto
          -103 callgsubr
          87 -619 -107 callsubr
        </CharString>
        <CharString name="b">
          346 -12 rmoveto
          129 81 84 192 189 -85 85 -117 -72 -54 -24 -49 -32 hvcurveto
          -6 258 -120 -723 99 hlineto
          10 70 rlineto
          6 hlineto
          -55 35 59 -27 67 hhcurveto
          -36 103 rmoveto
          -85 -35 59 106 hvcurveto
          12 vlineto
          107 36 60 -36 callgsubr
        </CharString>
        <CharString name="backslash">
          -366 190 -49 rmoveto
          87 hlineto
          -190 784 rlineto
          -86 hlineto
          endchar
        </CharString>
        <CharString name="bar">
          -371 90 -173 rmoveto
          93 896 -93 hlineto
          endchar
        </CharString>
        <CharString name="braceleft">
          -274 325 -159 rmoveto
          70 vlineto
          -44 -51 11 54 -1 hvcurveto
          55 -5 91 -2 53 vhcurveto
          68 -3 -29 40 -82 hhcurveto
          10 vlineto
          82 30 40 68 2 hvcurveto
          2 53 5 91 55 vvcurveto
          54 1 53 11 42 hhcurveto
          70 vlineto
          -118 -82 -22 -126 hvcurveto
          -194 vlineto
          -45 -49 -15 -43 vhcurveto
          -90 vlineto
          43 49 -15 -45 hvcurveto
          -194 vlineto
          -126 82 -22 118 vhcurveto
          endchar
        </CharString>
        <CharString name="braceright">
          -274 45 -159 rmoveto
          118 82 22 126 hvcurveto
          194 vlineto
          45 49 15 43 vhcurveto
          90 vlineto
          -43 -49 15 45 hvcurveto
          194 vlineto
          126 -82 22 -118 vhcurveto
          -70 vlineto
          42 53 -11 -54 hvcurveto
          1 -55 5 -91 1 -53 rrcurveto
          -68 3 30 -40 82 hhcurveto
          -10 vlineto
          -82 -30 -40 -68 -3 hvcurveto
          -1 -53 -5 -91 -1 -55 rrcurveto
          -54 -51 -11 -44 vhcurveto
          endchar
        </CharString>
        <CharString name="bracketleft">
          -330 68 -161 rmoveto
          207 85 -104 726 104 85 -207 hlineto
          endchar
        </CharString>
        <CharString name="bracketright">
          -330 39 -161 rmoveto
          207 896 -207 -85 104 -726 -104 hlineto
          endchar
        </CharString>
        <CharString name="breve">
          -311 166 -72 callsubr
          endchar
        </CharString>
        <CharString name="brokenbar">
          -371 90 357 rmoveto
          93 366 -93 hlineto
          -896 vmoveto
          93 366 -93 hlineto
          endchar
        </CharString>
        <CharString name="bullet">
          -294 175 212 rmoveto
          73 59 58 73 73 -59 59 -73 -73 -58 -59 -73 -73 58 -58 73 hvcurveto
          endchar
        </CharString>
        <CharString name="c">
          -107 281 -12 -86 callsubr
        </CharString>
        <CharString name="cacute">
          -107 220 591 -100 callsubr
          -20 -735 -86 callsubr
        </CharString>
        <CharString name="cacute.loclPLK">
          -107 220 591 -68 callgsubr
          33 -734 -86 callsubr
        </CharString>
        <CharString name="caron">
          -311 113 588 -96 callsubr
          endchar
        </CharString>
        <CharString name="ccaron">
          -107 214 588 -96 callsubr
          173 -735 -86 callsubr
        </CharString>
        <CharString name="ccedilla">
          -107 284 85 rmoveto
          -89 -36 56 115 hvcurveto
          12 vlineto
          116 37 57 83 72 31 -38 -74 -15 callgsubr
          139 -83 70 -140 -163 -81 -86 -189 -166 62 -87 127 -18 vhcurveto
          -11 -69 -65 callgsubr
          -50 callsubr
          4 23 rlineto
          128 7 73 77 124 vvcurveto
          -116 hlineto
          -72 -36 -40 -68 vhcurveto
          endchar
        </CharString>
        <CharString name="ccircumflex">
          -107 108 -77 callgsubr
          67 -735 -86 callsubr
        </CharString>
        <CharString name="cdotaccent">
          -107 208 -44 callsubr
          73 -736 -86 callsubr
        </CharString>
        <CharString name="cedilla">
          -311 148 -14 callsubr
          -50 callsubr
          7 45 rlineto
          -77 hlineto
          -14 -88 -65 callgsubr
          endchar
        </CharString>
        <CharString name="cent">
          -88 259 -49 rmoveto
          51 117 hlineto
          126 8 73 77 124 vvcurveto
          -116 hlineto
          -65 -28 -39 -55 -7 vhcurveto
          352 vlineto
          53 -8 25 -37 -64 vvcurveto
          121 hlineto
          130 -74 70 -125 8 vhcurveto
          106 -51 -106 vlineto
          -146 -10 -71 -87 -177 vvcurveto
          -179 71 -86 146 -10 vhcurveto
          99 vmoveto
          -67 12 -27 56 101 vvcurveto
          13 vlineto
          102 28 56 66 11 vhcurveto
          endchar
        </CharString>
        <CharString name="circumflex">
          -311 7 -77 callgsubr
          endchar
        </CharString>
        <CharString name="colon">
          -330 95 399 rmoveto
          -32 callsubr
          -526 vmoveto
          -32 callsubr
          endchar
        </CharString>
        <CharString name="comma">
          -366 77 -148 rmoveto
          65 hlineto
          59 159 rlineto
          116 -124 -127 49 vlineto
          endchar
        </CharString>
        <CharString name="copyright">
          -59 callsubr
          87 vmoveto
          115 44 77 86 hvcurveto
          -70 hlineto
          -65 -25 -36 -64 -73 -30 42 106 107 32 41 71 65 20 -32 -69 vhcurveto
          74 hlineto
          106 -46 57 -113 -122 -56 -66 -144 -144 55 -66 123 vhcurveto
          endchar
        </CharString>
        <CharString name="currency">
          -88 74 99 rmoveto
          55 58 rlineto
          -37 40 55 -18 54 hhcurveto
          54 55 18 37 40 hvcurveto
          55 -58 45 45 -54 56 rlineto
          34 42 16 54 55 vvcurveto
          55 -16 56 -34 39 vhcurveto
          55 54 -48 48 -57 -56 rlineto
          33 -38 -54 18 -53 hhcurveto
          -53 -54 -18 -33 -38 hvcurveto
          -57 56 -48 -48 55 -54 rlineto
          -34 -39 -16 -56 -55 vvcurveto
          -55 16 -54 34 -42 vhcurveto
          -54 -56 rlineto
          249 37 rmoveto
          -91 -72 79 91 89 73 79 90 90 73 -79 -89 -91 -72 -79 -91 hvcurveto
          endchar
        </CharString>
        <CharString name="d">
          -76 callgsubr
          36 103 -67 callsubr
          endchar
        </CharString>
        <CharString name="dagger">
          -88 223 -172 rmoveto
          108 hlineto
          -20 599 -9 callgsubr
          -102 -10 callsubr
          rlineto
          endchar
        </CharString>
        <CharString name="daggerdbl">
          -88 227 -172 rmoveto
          101 hlineto
          -17 190 206 -17 rlineto
          106 vlineto
          -206 -18 20 171 -20 167 -9 callgsubr
          -101 -10 callsubr
          -20 -167 20 -171 -205 18 rlineto
          -106 vlineto
          205 17 rlineto
          endchar
        </CharString>
        <CharString name="dcaron">
          42 -76 callgsubr
          330 471 rmoveto
          63 hlineto
          57 -38 callsubr
          -342 -480 -67 callsubr
          endchar
        </CharString>
        <CharString name="dcroat">
          583 658 rmoveto
          -61 65 -120 -65 -149 -68 149 -125 -6 hlineto
          49 -32 -54 24 -72 hhcurveto
          -117 -85 -85 -189 -192 81 -84 129 67 59 27 55 35 hvcurveto
          6 hlineto
          10 -70 rlineto
          99 590 61 hlineto
          -181 -334 rmoveto
          -106 -35 -59 -85 -90 -32 52 113 vhcurveto
          13 vlineto
          114 33 52 89 84 36 -60 -107 vhcurveto
          endchar
        </CharString>
        <CharString name="degree">
          -244 199 401 rmoveto
          83 66 65 83 83 -66 66 -83 -83 -65 -66 -83 -83 65 -65 83 hvcurveto
          72 vmoveto
          -42 -34 34 42 43 34 33 42 43 33 -33 -43 -42 -33 -34 -43 hvcurveto
          endchar
        </CharString>
        <CharString name="dieresis">
          -311 12 -71 callsubr
          endchar
        </CharString>
        <CharString name="divide">
          -95 217 405 rmoveto
          114 107 -114 hlineto
          -178 -305 rmoveto
          -11 callsubr
          178 -303 rmoveto
          114 106 -114 hlineto
          endchar
        </CharString>
        <CharString name="dollar">
          -88 252 -49 rmoveto
          51 117 hlineto
          117 6 85 47 114 vvcurveto
          114 -110 27 -92 22 vhcurveto
          126 vlineto
          48 -7 25 -26 -35 vvcurveto
          -3 113 vlineto
          1 1 11 9 vvcurveto
          80 -76 56 -111 7 vhcurveto
          106 -51 -106 vlineto
          -114 -8 -81 -54 -94 vvcurveto
          -107 103 -28 92 -23 vhcurveto
          -143 vlineto
          -50 6 -41 23 -1 49 rrcurveto
          8 -114 vlineto
          -1 -6 0 -5 -5 vvcurveto
          -88 70 -67 137 -7 vhcurveto
          343 vmoveto
          -45 13 -32 15 32 vvcurveto
          25 23 24 54 5 vhcurveto
          51 -365 rmoveto
          129 vlineto
          48 -14 36 -18 -37 vvcurveto
          -38 -39 -18 -45 -4 vhcurveto
          endchar
        </CharString>
        <CharString name="dotaccent">
          -311 108 -44 callsubr
          endchar
        </CharString>
        <CharString name="dotbelowcomb">
          -644 -225 -173 rmoveto
          3 callgsubr
        </CharString>
        <CharString name="dotlessi">
          -366 79 hmoveto
          -56 callgsubr
        </CharString>
        <CharString name="e">
          -88 289 -12 -105 callgsubr
          endchar
        </CharString>
        <CharString name="eacute">
          -88 230 591 -100 callsubr
          -22 -735 -105 callgsubr
          endchar
        </CharString>
        <CharString name="ebreve">
          -88 277 -72 callsubr
          12 -605 -105 callgsubr
          endchar
        </CharString>
        <CharString name="ecaron">
          -88 224 588 -96 callsubr
          171 -735 -105 callgsubr
          endchar
        </CharString>
        <CharString name="ecircumflex">
          -26 callsubr
          65 -735 -105 callgsubr
          endchar
        </CharString>
        <CharString name="edieresis">
          -88 124 -71 callsubr
          -37 -735 -105 callgsubr
          endchar
        </CharString>
        <CharString name="edotaccent">
          -88 218 -44 callsubr
          71 -736 -105 callgsubr
          endchar
        </CharString>
        <CharString name="egrave">
          -88 230 591 -86 callgsubr
          167 -732 -105 callgsubr
          endchar
        </CharString>
        <CharString name="eight">
          -88 278 -12 rmoveto
          172 71 90 110 74 -33 59 -78 31 hvcurveto
          62 33 31 57 65 vvcurveto
          105 -76 86 -149 -150 -76 -86 -105 -65 31 -57 62 -33 vhcurveto
          -77 -31 -33 -59 -74 vvcurveto
          -110 70 -90 173 vhcurveto
          411 vmoveto
          -66 -39 36 64 65 38 37 67 65 40 -37 -65 -64 -40 -36 -65 hvcurveto
          -314 vmoveto
          -78 -42 41 68 68 42 40 78 77 42 -40 -68 -68 -42 -41 -77 hvcurveto
          endchar
        </CharString>
        <CharString name="ellipsis">
          356 105 hmoveto
          -32 callsubr
          333 -127 rmoveto
          -32 callsubr
          332 -127 -49 callgsubr
          endchar
        </CharString>
        <CharString name="emacron">
          -88 125 617 -62 callgsubr
          164 -711 -105 callgsubr
          endchar
        </CharString>
        <CharString name="emdash">
          356 225 vmoveto
          1000 90 -1000 hlineto
          endchar
        </CharString>
        <CharString name="endash">
          -88 225 vmoveto
          556 90 -556 hlineto
          endchar
        </CharString>
        <CharString name="eng">
          397 -14 callsubr
          99 29 68 66 hvcurveto
          403 vlineto
          134 -70 49 -100 -76 -56 -33 -49 -37 vhcurveto
          -7 hlineto
          -10 70 rlineto
          -99 -526 -22 callsubr
          hlineto
          75 52 53 66 60 37 -25 -75 vhcurveto
          -374 vlineto
          -29 -15 -16 -29 vhcurveto
          -49 -82 hlineto
          -8 20 36 -7 29 hhcurveto
          endchar
        </CharString>
        <CharString name="eogonek">
          -88 450 -3 callsubr
          -22 vlineto
          -41 -17 30 43 41 17 34 15 18 hvcurveto
          30 31 18 44 1 57 rrcurveto
          -118 hlineto
          -70 -49 -31 -63 -91 -36 50 101 -4 vhcurveto
          361 36 hlineto
          187 -79 81 -152 -168 -84 -86 -189 -189 82 -86 166 28 26 4 8 24 vhcurveto
          -11 -21 -9 -27 -36 vvcurveto
          -75 53 -23 54 vhcurveto
          -289 501 rmoveto
          84 9 39 40 80 hhcurveto
          64 42 -35 -89 hvcurveto
          endchar
        </CharString>
        <CharString name="equal">
          -60 56 311 rmoveto
          472 98 -472 hlineto
          -310 vmoveto
          -11 callsubr
          endchar
        </CharString>
        <CharString name="equivalence">
          -61 56 439 rmoveto
          -11 callgsubr
          -310 vmoveto
          -11 callgsubr
          -309 vmoveto
          473 96 -473 hlineto
          endchar
        </CharString>
        <CharString name="estimated">
          -44 302 -12 rmoveto
          104 78 50 80 42 hvcurveto
          -34 21 rlineto
          -67 -34 -68 -42 -88 hhcurveto
          -62 -50 19 34 -37 hvcurveto
          165 406 5 vlineto
          165 -98 120 -159 -160 -97 -116 -159 -159 97 -116 160 vhcurveto
          -149 302 rmoveto
          152 vlineto
          34 37 50 20 62 hhcurveto
          61 50 -20 -35 38 hvcurveto
          -151 vlineto
          endchar
        </CharString>
        <CharString name="eth">
          296 -12 rmoveto
          -31 callgsubr
          85 187 139 -46 113 -86 99 hvcurveto
          92 6 rlineto
          69 vlineto
          -157 -12 -18 17 -19 16 -22 16 rlinecurve
          -139 hlineto
          -3 -5 23 -18 22 -17 20 -18 rlinecurve
          -100 -8 rlineto
          -68 vlineto
          161 12 25 -28 21 -27 18 -28 rlinecurve
          -3 -3 rlineto
          10 -26 -30 6 -30 hhcurveto
          -139 -82 -96 -175 -187 87 -85 172 -27 callgsubr
          -97 -38 56 113 hvcurveto
          12 vlineto
          112 38 54 97 96 39 -55 -114 vhcurveto
          -9 vlineto
          -113 -39 -56 -96 vhcurveto
          endchar
        </CharString>
        <CharString name="exclam">
          -330 119 188 rmoveto
          -48 callgsubr
          -24 -188 -49 callgsubr
          endchar
        </CharString>
        <CharString name="exclamdbl">
          -76 119 188 rmoveto
          -48 callgsubr
          253 hmoveto
          -48 callgsubr
          -277 -188 -49 callgsubr
          253 -127 -49 callgsubr
          endchar
        </CharString>
        <CharString name="exclamdown">
          -311 105 398 rmoveto
          -32 callsubr
          -8 -686 rmoveto
          139 hlineto
          -32 498 rlineto
          -75 hlineto
          -11 -169 -12 -202 -9 -127 rrcurveto
          endchar
        </CharString>
        <CharString name="f">
          -330 85 hmoveto
          -23 callgsubr
          hlineto
          -63 callgsubr
          vlineto
          endchar
        </CharString>
        <CharString name="f_f">
          -16 564 633 rmoveto
          50 83 hlineto
          8 -20 -35 7 -28 hhcurveto
          -103 -29 -69 -68 hvcurveto
          -68 -194 62 vlineto
          -63 callgsubr
          -428 120 428 194 -428 -23 callgsubr
          vlineto
          29 15 16 30 vhcurveto
          endchar
        </CharString>
        <CharString name="fi">
          -71 85 hmoveto
          -23 callgsubr
          hlineto
          -63 callgsubr
          vlineto
          299 180 -38 callgsubr
          endchar
        </CharString>
        <CharString name="five">
          -88 277 -12 rmoveto
          147 92 85 151 151 -90 71 -114 -65 -40 -21 -20 -27 hvcurveto
          11 172 rlineto
          290 109 -394 hlineto
          -28 -380 113 -15 rlineto
          33 22 36 26 50 hhcurveto
          65 47 -42 -84 -93 -46 -45 -69 -71 -47 49 78 hvcurveto
          -123 hlineto
          -140 96 -85 145 vhcurveto
          endchar
        </CharString>
        <CharString name="fiveeighths">
          190 103 -12 -59 callgsubr
          -479 -378 rmoveto
          78 49 45 81 81 -49 38 -61 -27 -20 -7 -8 -14 hvcurveto
          5 68 rlineto
          148 68 -213 hlineto
          -14 -198 68 -9 rlineto
          14 13 14 9 21 hhcurveto
          30 22 -17 -39 -41 -21 -21 -29 -32 -21 20 33 hvcurveto
          -76 hlineto
          -73 51 -44 78 vhcurveto
          492 -332 -84 callgsubr
        </CharString>
        <CharString name="fl">
          -71 85 hmoveto
          -23 callgsubr
          hlineto
          -63 callgsubr
          vlineto
          299 -428 rmoveto
          -37 callsubr
          endchar
        </CharString>
        <CharString name="florin">
          -88 108 -183 rmoveto
          103 44 69 68 14 hvcurveto
          93 432 rlineto
          96 hlineto
          20 99 rlineto
          -96 hlineto
          22 103 rlineto
          29 7 18 16 30 hhcurveto
          51 hlineto
          17 83 rlineto
          8 -18 -33 7 -29 hhcurveto
          -103 -44 -69 -68 -14 hvcurveto
          -24 -109 rlineto
          -76 hlineto
          -20 -99 rlineto
          76 hlineto
          -91 -426 rlineto
          -29 -7 -17 -16 -30 hhcurveto
          -51 hlineto
          -17 -83 rlineto
          -8 18 33 -7 28 hhcurveto
          endchar
        </CharString>
        <CharString name="four">
          -88 324 hmoveto
          120 154 86 98 -86 344 -57 hlineto
          -15 -53 -23 -64 -25 -50 rrcurveto
          -177 -195 vlineto
          42 55 118 212 42 179 rrcurveto
          -125 hlineto
          -42 -170 -63 -144 -79 -131 rrcurveto
          -99 302 vlineto
          endchar
        </CharString>
        <CharString name="fraction">
          -477 -231 -12 -59 callgsubr
          endchar
        </CharString>
        <CharString name="franc">
          -88 67 hmoveto
          126 275 102 -275 120 212 hlineto
          97 35 45 63 vhcurveto
          38 113 hlineto
          0 -18 9 -25 -53 -28 -45 -50 -15 vhcurveto
          -7 hlineto
          -11 83 rlineto
          -99 -83 -102 199 227 106 -353 hlineto
          endchar
        </CharString>
        <CharString name="g">
          157 -182 -104 callgsubr
        </CharString>
        <CharString name="g_tilde.loclGUA">
          129 607 rmoveto
          -103 callgsubr
          28 -789 -104 callgsubr
        </CharString>
        <CharString name="gbreve">
          295 -72 callsubr
          -138 -775 -104 callgsubr
        </CharString>
        <CharString name="gcaron">
          242 588 -96 callsubr
          21 -905 -104 callgsubr
        </CharString>
        <CharString name="gcircumflex">
          140 588 rmoveto
          104 hlineto
          54 72 53 -72 rlineto
          103 hlineto
          -102 135 rlineto
          -109 hlineto
          -86 -905 rmoveto
          236 hlineto
          113 73 70 89 79 -56 57 -79 hvcurveto
          -230 hlineto
          -26 -15 15 19 21 17 13 28 hvcurveto
          82 hlineto
          142 79 69 110 49 -19 42 -33 31 hvcurveto
          67 15 42 45 71 vvcurveto
          -97 hlineto
          -2 -24 -18 -49 -63 -18 rrcurveto
          11 -30 -35 5 -39 hhcurveto
          -144 -82 -69 -109 -61 27 -48 48 -31 hvcurveto
          -44 -11 -47 -29 -50 vvcurveto
          -37 21 -27 31 -16 vhcurveto
          -40 -18 -42 -31 -60 vvcurveto
          -82 66 -41 69 vhcurveto
          138 448 rmoveto
          -72 -35 34 60 59 35 35 72 71 36 -35 -59 -60 -36 -34 -71 hvcurveto
          -96 -361 rmoveto
          -33 -23 21 32 31 23 22 33 hvcurveto
          202 hlineto
          33 25 -19 -34 -32 -29 -21 -37 hvcurveto
          endchar
        </CharString>
        <CharString name="gcommaaccent">
          237 593 rmoveto
          121 96 -49 hlineto
          49 91 rlineto
          -63 hlineto
          -58 -102 rlineto
          -80 -860 -104 callgsubr
        </CharString>
        <CharString name="gdotaccent">
          236 -44 callsubr
          -79 -906 -104 callgsubr
        </CharString>
        <CharString name="germandbls">
          -33 65 hmoveto
          120 519 hlineto
          77 49 42 78 77 39 -43 -57 -57 -39 -46 -57 vhcurveto
          -79 -104 84 hlineto
          71 45 -51 -65 -63 -44 -54 -68 hvcurveto
          -88 -98 100 hlineto
          133 88 89 118 88 -50 72 -88 25 hvcurveto
          4 vlineto
          66 23 48 58 78 vvcurveto
          106 -87 74 -148 -139 -111 -64 -158 vhcurveto
          endchar
        </CharString>
        <CharString name="grave">
          -311 183 591 -86 callgsubr
          endchar
        </CharString>
        <CharString name="greater">
          -60 56 3 -12 callgsubr
          -109 -2 callgsubr
          endchar
        </CharString>
        <CharString name="greaterequal">
          -95 38 123 -12 callgsubr
          -108 -2 callgsubr
          -232 vmoveto
          -11 callgsubr
          endchar
        </CharString>
        <CharString name="guillemotleft">
          -88 204 -25 callsubr
          356 -200 rmoveto
          90 hlineto
          -116 200 116 200 rlineto
          -90 hlineto
          -143 -200 rlineto
          endchar
        </CharString>
        <CharString name="guillemotright">
          -88 48 -24 callsubr
          98 -200 rmoveto
          89 hlineto
          144 200 -144 200 rlineto
          -89 hlineto
          115 -200 rlineto
          endchar
        </CharString>
        <CharString name="guilsinglleft">
          -311 201 -25 callsubr
          endchar
        </CharString>
        <CharString name="guilsinglright">
          -311 43 -24 callsubr
          endchar
        </CharString>
        <CharString name="h">
          70 hmoveto
          -75 callgsubr
          -73 -52 -30 -42 -33 vhcurveto
          -7 257 -64 callgsubr
          endchar
        </CharString>
        <CharString name="hbar">
          70 hmoveto
          -75 callgsubr
          -73 -52 -30 -42 -33 vhcurveto
          -7 124 149 68 -149 65 -120 -65 -61 -68 61 hlineto
          endchar
        </CharString>
        <CharString name="hcircumflex">
          -30 748 -104 callsubr
          -6 -883 rmoveto
          -75 callgsubr
          -73 -52 -30 -42 -33 vhcurveto
          -7 257 -64 callgsubr
          endchar
        </CharString>
        <CharString name="hookabovecomb">
          -644 -213 591 -101 callgsubr
          endchar
        </CharString>
        <CharString name="house">
          -40 77 hmoveto
          450 310 hlineto
          -225 253 -225 -253 rlineto
          59 -250 rmoveto
          226 vlineto
          166 189 166 -189 rlineto
          -226 vlineto
          endchar
        </CharString>
        <CharString name="hungarumlaut">
          -311 14 591 -69 callsubr
          endchar
        </CharString>
        <CharString name="hyphen">
          -14 callgsubr
        </CharString>
        <CharString name="i">
          -385 70 608 -38 callgsubr
          endchar
        </CharString>
        <CharString name="i.loclTRK">
          -366 79 -44 callsubr
          -724 vmoveto
          -56 callgsubr
        </CharString>
        <CharString name="iacute">
          -366 76 591 rmoveto
          94 hlineto
          108 -37 callgsubr
          -78 -4 callgsubr
          endchar
        </CharString>
        <CharString name="iacute_j.loclNLD">
          -107 76 591 rmoveto
          94 hlineto
          108 -37 callgsubr
          202 -132 -100 callsubr
          -361 -4 callgsubr
          260 -708 -83 callsubr
        </CharString>
        <CharString name="ibreve">
          -366 140 593 rmoveto
          115 42 69 61 hvcurveto
          -80 hlineto
          -21 -3 -21 -29 -53 hhcurveto
          -53 -19 29 21 -3 hvcurveto
          -80 hlineto
          -61 41 -69 114 vhcurveto
          -61 -593 -58 callsubr
        </CharString>
        <CharString name="icircumflex">
          -366 -20 -77 callgsubr
          -7 -4 callgsubr
          endchar
        </CharString>
        <CharString name="idieresis">
          -366 -16 613 -75 callsubr
          202 -110 -75 callsubr
          -107 -4 callgsubr
          endchar
        </CharString>
        <CharString name="igrave">
          -366 110 591 -60 callgsubr
          -81 132 rlineto
          -121 hlineto
          -1 -3 rlineto
          77 -720 -58 callsubr
        </CharString>
        <CharString name="ij">
          -126 70 -21 callsubr
          259 -115 -49 callsubr
          -259 -4 callgsubr
          250 -708 -83 callsubr
        </CharString>
        <CharString name="imacron">
          -366 -4 639 rmoveto
          287 82 -287 hlineto
          83 -721 -58 callsubr
        </CharString>
        <CharString name="infinity">
          69 195 139 rmoveto
          69 46 41 54 45 hvcurveto
          -72 52 56 -23 51 hhcurveto
          83 67 64 97 93 -65 63 -85 -75 -45 -54 -39 -34 hvcurveto
          56 -43 -48 37 -68 hhcurveto
          -90 -64 -67 -93 -93 65 -64 83 hvcurveto
          9 80 rmoveto
          -40 -30 35 42 49 31 31 37 43 24 -25 -57 40 hvcurveto
          -38 -28 -34 -37 -43 hhcurveto
          307 hmoveto
          -37 -28 20 59 -43 hvcurveto
          52 42 25 26 38 hhcurveto
          41 28 -35 -45 -37 -26 -40 -40 hvcurveto
          endchar
        </CharString>
        <CharString name="integral">
          -370 26 -141 rmoveto
          96 81 17 95 150 -28 619 0 hvcurveto
          -6 callsubr
          -151 27 -616 0 hvcurveto
          -44 -33 -14 -46 vhcurveto
          endchar
        </CharString>
        <CharString name="integralbt">
          -40 180 -250 rmoveto
          96 82 18 94 80 -7 477 -7 440 hvcurveto
          -100 hlineto
          17 -990 rlineto
          -43 -35 -14 -46 vhcurveto
          endchar
        </CharString>
        <CharString name="integraltp">
          -40 260 -250 rmoveto
          100 hlineto
          -17 990 rlineto
          -6 callsubr
          -80 7 -477 7 -440 hvcurveto
          endchar
        </CharString>
        <CharString name="intersection">
          77 94 hmoveto
          85 410 hlineto
          106 81 78 100 100 80 -78 -106 vhcurveto
          -410 86 410 vlineto
          151 -119 115 -147 -147 -119 -115 -151 vhcurveto
          endchar
        </CharString>
        <CharString name="iogonek">
          -366 197 724 rmoveto
          -118 -118 118 hlineto
          2 -606 rmoveto
          -47 callsubr
          -523 vlineto
          -28 -26 -24 -30 -48 vvcurveto
          -68 55 -21 49 23 21 5 9 24 vhcurveto
          -39 callgsubr
          endchar
        </CharString>
        <CharString name="itilde">
          -366 -27 607 rmoveto
          68 hlineto
          26 3 12 9 18 46 41 -35 50 hhcurveto
          68 27 54 62 hvcurveto
          -69 hlineto
          -26 -3 -12 -9 -17 -47 -40 35 -52 hhcurveto
          -66 -27 -54 -62 hvcurveto
          106 -607 -58 callsubr
        </CharString>
        <CharString name="j">
          -385 70 -21 callsubr
          -9 -905 -83 callsubr
        </CharString>
        <CharString name="jcircumflex">
          -385 -30 588 rmoveto
          104 hlineto
          56 72 56 -72 rlineto
          104 hlineto
          -105 135 rlineto
          -109 hlineto
          -15 -905 -83 callsubr
        </CharString>
        <CharString name="k">
          -55 callgsubr
          423 -120 vlineto
          endchar
        </CharString>
        <CharString name="kcommaaccent">
          -55 callgsubr
          423 -120 vlineto
          164 -953 -73 callgsubr
        </CharString>
        <CharString name="kgreenlandic">
          -55 callgsubr
          226 -120 vlineto
          endchar
        </CharString>
        <CharString name="l">
          -385 -29 callsubr
          endchar
        </CharString>
        <CharString name="lacute">
          -385 81 751 -100 callsubr
          -92 -883 rmoveto
          -37 callsubr
          endchar
        </CharString>
        <CharString name="lcaron">
          -291 -29 callsubr
          172 -264 rmoveto
          63 hlineto
          57 -38 callsubr
          endchar
        </CharString>
        <CharString name="lcommaaccent">
          -385 -29 callsubr
          1 -953 -73 callgsubr
        </CharString>
        <CharString name="ldot">
          -305 -29 callsubr
          169 -429 -49 callgsubr
          endchar
        </CharString>
        <CharString name="less">
          -60 528 3 rmoveto
          108 -4 callsubr
          109 0 callgsubr
          endchar
        </CharString>
        <CharString name="lessequal">
          -95 512 123 rmoveto
          109 -4 callsubr
          108 0 callgsubr
          1 -319 rmoveto
          -11 callgsubr
          endchar
        </CharString>
        <CharString name="lira">
          -3 callgsubr
          96 rlineto
          160 85 -160 61 160 85 -159 85 -33 callgsubr
          -71 -81 -85 81 -61 -81 -85 81 -96 -67 vlineto
          endchar
        </CharString>
        <CharString name="logicalnot">
          -60 444 194 rmoveto
          93 260 -490 -96 397 hlineto
          endchar
        </CharString>
        <CharString name="longs">
          -366 85 hmoveto
          120 588 hlineto
          -63 callgsubr
          vlineto
          endchar
        </CharString>
        <CharString name="lozenge">
          -50 227 -133 rmoveto
          120 hlineto
          178 431 -178 430 -63 callsubr
          -179 -430 rlineto
          239 -320 rmoveto
          -125 320 125 319 125 -319 rlineto
          endchar
        </CharString>
        <CharString name="lslash">
          -385 70 hmoveto
          120 348 hlineto
          68 51 rlineto
          93 vlineto
          -68 -51 rlineto
          282 -120 -368 vlineto
          -70 -51 rlineto
          -93 vlineto
          70 50 rlineto
          endchar
        </CharString>
        <CharString name="m">
          226 70 hmoveto
          -22 callsubr
          hlineto
          75 46 53 58 49 34 -24 -72 vhcurveto
          -338 -22 callsubr
          vlineto
          75 44 53 59 49 34 -24 -72 vhcurveto
          -338 120 362 vlineto
          129 -68 47 -93 -70 -55 -35 -47 -33 vhcurveto
          -8 hlineto
          59 -26 -50 23 -61 hhcurveto
          -69 -51 -34 -48 -33 hvcurveto
          -7 hlineto
          -10 70 rlineto
          -99 hlineto
          endchar
        </CharString>
        <CharString name="macron">
          -311 14 617 -62 callgsubr
          endchar
        </CharString>
        <CharString name="minus">
          -60 56 207 rmoveto
          -11 callsubr
          endchar
        </CharString>
        <CharString name="minute">
          -422 50 509 -16 callgsubr
          -119 hlineto
          endchar
        </CharString>
        <CharString name="multiply">
          -60 145 40 rmoveto
          147 147 146 -147 69 69 -147 145 147 148 -68 69 -147 -148 -147 147 -68 -68 147 -147 -147 -146 rlineto
          endchar
        </CharString>
        <CharString name="n">
          70 hmoveto
          -83 callgsubr
        </CharString>
        <CharString name="nacute">
          248 591 -100 callsubr
          -259 -723 rmoveto
          -83 callgsubr
        </CharString>
        <CharString name="nacute.loclPLK">
          248 591 -68 callgsubr
          -206 -722 rmoveto
          -83 callgsubr
        </CharString>
        <CharString name="napostrophe">
          28 -2 459 rmoveto
          62 hlineto
          58 -38 callsubr
          104 -571 rmoveto
          -83 callgsubr
        </CharString>
        <CharString name="ncaron">
          242 588 -96 callsubr
          -66 -723 rmoveto
          -83 callgsubr
        </CharString>
        <CharString name="ncommaaccent">
          70 hmoveto
          -80 callgsubr
          168 -756 -73 callgsubr
        </CharString>
        <CharString name="nine">
          -88 268 -12 rmoveto
          157 90 91 284 254 -95 81 -157 -133 -97 -87 -139 -129 65 -97 145 81 55 45 17 13 hvcurveto
          -137 -2 -17 -85 -100 hhcurveto
          -67 -29 42 74 hvcurveto
          -122 hlineto
          -121 63 -93 150 vhcurveto
          1 354 rmoveto
          -77 -36 54 75 72 36 57 77 78 36 -56 -72 -76 -36 -54 -78 hvcurveto
          endchar
        </CharString>
        <CharString name="notequal">
          -95 112 25 rmoveto
          80 hlineto
          39 74 rlineto
          279 97 -228 hlineto
          62 115 rlineto
          166 98 -114 hlineto
          41 75 rlineto
          -80 hlineto
          -40 -75 rlineto
          -279 -98 227 hlineto
          -62 -115 rlineto
          -165 -97 114 hlineto
          endchar
        </CharString>
        <CharString name="ntilde">
          129 607 rmoveto
          -103 callgsubr
          -59 -607 rmoveto
          -83 callgsubr
        </CharString>
        <CharString name="numbersign">
          -88 41 -12 rmoveto
          94 hlineto
          38 181 rlineto
          131 hlineto
          -37 -181 rlineto
          95 hlineto
          37 181 rlineto
          99 96 -79 hlineto
          28 135 rlineto
          97 96 -77 -6 callgsubr
          -132 -6 callgsubr
          -92 -96 71 hlineto
          -28 -135 rlineto
          -89 -96 69 hlineto
          115 96 rmoveto
          28 135 rlineto
          131 hlineto
          -28 -135 rlineto
          endchar
        </CharString>
        <CharString name="o">
          296 -12 -105 callsubr
          endchar
        </CharString>
        <CharString name="oacute">
          248 591 -13 callsubr
          -735 -105 callsubr
          endchar
        </CharString>
        <CharString name="oacute.loclPLK">
          248 591 -68 callgsubr
          20 -734 -105 callsubr
          endchar
        </CharString>
        <CharString name="obreve">
          295 -72 callsubr
          1 -605 -105 callsubr
          endchar
        </CharString>
        <CharString name="ocircumflex">
          -24 callgsubr
          54 -735 -105 callsubr
          endchar
        </CharString>
        <CharString name="odieresis">
          142 -71 callsubr
          -48 -735 -105 callsubr
          endchar
        </CharString>
        <CharString name="oe">
          300 293 -12 rmoveto
          86 65 26 52 43 hvcurveto
          -52 41 64 -26 86 hhcurveto
          131 1 callgsubr
          -49 -31 -63 -91 -36 50 101 -4 vhcurveto
          361 36 hlineto
          187 -79 81 -152 -86 -64 -26 -53 -41 vhcurveto
          53 -43 -65 26 -86 hhcurveto
          -169 -87 -86 -189 -189 87 -21 callgsubr
          hvcurveto
          257 331 rmoveto
          84 9 39 40 80 hhcurveto
          64 42 -35 -89 hvcurveto
          -491 -233 rmoveto
          -94 -38 56 116 hvcurveto
          12 vlineto
          114 38 56 94 95 38 -57 -117 vhcurveto
          -8 vlineto
          -116 -38 -56 -95 vhcurveto
          endchar
        </CharString>
        <CharString name="ogonek">
          -311 180 -41 callgsubr
        </CharString>
        <CharString name="ograve">
          248 591 -86 callgsubr
          156 -732 -105 callsubr
          endchar
        </CharString>
        <CharString name="ohorn">
          509 686 -94 callgsubr
          endchar
        </CharString>
        <CharString name="ohungarumlaut">
          167 591 -69 callsubr
          -107 -735 -105 callsubr
          endchar
        </CharString>
        <CharString name="omacron">
          143 617 -62 callgsubr
          153 -711 -105 callsubr
          endchar
        </CharString>
        <CharString name="one">
          -88 88 hmoveto
          440 98 -153 588 -58 hlineto
          -69 -39 -101 -33 -60 -6 rrcurveto
          -74 168 -436 -167 vlineto
          endchar
        </CharString>
        <CharString name="oneeighth">
          190 109 -12 rmoveto
          83 hlineto
          546 710 rlineto
          -83 hlineto
          -607 -55 callsubr
          614 -409 -84 callgsubr
        </CharString>
        <CharString name="onehalf">
          190 103 -12 -59 callgsubr
          -601 -55 callsubr
          479 -397 -16 callsubr
          21 15 19 13 rrcurveto
          49 35 61 43 73 vvcurveto
          44 -25 63 -94 -70 -60 -31 -75 -7 1 -11 1 -8 -20 callgsubr
          -22 -18 -14 -3 -14 -9 -12 vhcurveto
          -15 -22 -25 -18 -28 -21 3 callsubr
        </CharString>
        <CharString name="onequarter">
          190 103 -12 -59 callgsubr
          -601 -55 callsubr
          615 -396 -45 callsubr
        </CharString>
        <CharString name="ordfeminine">
          -274 333 452 rmoveto
          -10 -12 6 16 hvcurveto
          160 vlineto
          65 -42 37 -90 -80 -55 -34 -59 -5 0 -4 1 -5 vhcurveto
          76 10 hlineto
          17 13 20 45 44 11 -21 -27 vhcurveto
          -29 vlineto
          -121 -85 -25 -91 -81 67 -13 39 50 31 17 26 22 hvcurveto
          4 hlineto
          -26 8 24 -16 33 hhcurveto
          23 17 5 4 8 hvcurveto
          53 vlineto
          -120 75 rmoveto
          -45 -30 -32 -48 -32 -16 15 25 44 57 10 69 vhcurveto
          endchar
        </CharString>
        <CharString name="ordmasculine">
          -279 183 389 rmoveto
          108 54 55 119 119 -54 54 -108 -107 -55 -54 -119 -119 55 -55 107 hvcurveto
          63 vmoveto
          -58 -23 36 72 hvcurveto
          7 vlineto
          71 23 36 58 58 23 -37 -73 vhcurveto
          -4 vlineto
          -72 -23 -36 -58 vhcurveto
          endchar
        </CharString>
        <CharString name="orthogonal">
          335 177 hmoveto
          625 81 -541 544 -84 hlineto
          endchar
        </CharString>
        <CharString name="oslash">
          -33 45 -49 -69 callgsubr
        </CharString>
        <CharString name="oslashacute">
          -33 258 591 -100 callsubr
          -294 -772 -69 callgsubr
        </CharString>
        <CharString name="otilde">
          129 607 rmoveto
          -103 callgsubr
          167 -619 -105 callsubr
          endchar
        </CharString>
        <CharString name="p">
          -26 callgsubr
          192 -81 84 -129 -67 -59 -27 -55 -35 hvcurveto
          -6 hlineto
          -10 70 rlineto
          -99 hlineto
          240 -435 rmoveto
          -85 -35 60 106 hvcurveto
          12 vlineto
          107 36 59 -36 callgsubr
        </CharString>
        <CharString name="paragraph">
          -95 233 -168 rmoveto
          84 793 66 -793 84 793 61 61 -266 hlineto
          -136 -108 -58 -160 -145 105 -70 110 hvcurveto
          endchar
        </CharString>
        <CharString name="parenleft">
          -311 225 -157 rmoveto
          78 hlineto
          -77 122 -59 169 157 vvcurveto
          156 59 167 77 122 vhcurveto
          -78 hlineto
          -110 -122 -61 -159 -164 vvcurveto
          -165 61 -159 110 -124 vhcurveto
          endchar
        </CharString>
        <CharString name="parenright">
          -311 39 -157 rmoveto
          78 hlineto
          110 123 61 158 164 vvcurveto
          165 -61 160 -110 123 vhcurveto
          -78 hlineto
          77 -121 59 -166 -155 vvcurveto
          -158 -59 -170 -77 -123 vhcurveto
          endchar
        </CharString>
        <CharString name="partialdiff">
          -150 216 -12 rmoveto
          151 85 148 247 250 -115 102 -116 -54 -39 -13 -16 -30 hvcurveto
          -94 vlineto
          18 25 34 16 47 hhcurveto
          81 60 -100 -129 -9 0 -19 -2 -6 hvcurveto
          -4 hlineto
          24 -12 -38 42 -62 hhcurveto
          -97 -91 -93 -152 -116 60 -100 117 hvcurveto
          7 92 rmoveto
          -45 -26 49 72 87 41 74 54 49 31 -42 -34 9 hvcurveto
          -106 -7 -42 -100 -64 hhcurveto
          endchar
        </CharString>
        <CharString name="percent">
          245 213 337 rmoveto
          101 60 41 139 139 -60 42 -101 -101 -61 -42 -139 -138 61 -42 101 hvcurveto
          -65 -337 rmoveto
          94 hlineto
          503 -35 callsubr
          -96 hlineto
          -436 -276 rmoveto
          -55 -12 40 61 hvcurveto
          13 vlineto
          61 12 40 55 54 13 -40 -61 vhcurveto
          -13 vlineto
          -61 -13 -40 -54 vhcurveto
          464 -422 rmoveto
          101 61 41 139 139 -61 42 -101 -101 -60 -42 -139 -138 60 -42 101 hvcurveto
          73 vmoveto
          -54 -13 41 61 hvcurveto
          12 vlineto
          61 13 40 54 55 13 -40 -61 vhcurveto
          -12 vlineto
          -61 -13 -41 -55 vhcurveto
          endchar
        </CharString>
        <CharString name="period">
          -366 77 hmoveto
          125 127 -125 hlineto
          endchar
        </CharString>
        <CharString name="periodcentered">
          -311 103 294 -49 callgsubr
          endchar
        </CharString>
        <CharString name="perthousand">
          356 161 337 rmoveto
          89 53 41 139 139 -53 42 -89 -90 -53 -42 -139 -138 53 -42 90 hvcurveto
          -50 -337 rmoveto
          79 hlineto
          377 -35 callsubr
          -81 hlineto
          -325 -276 rmoveto
          -40 -8 40 61 hvcurveto
          13 vlineto
          61 8 40 40 39 9 -40 -61 vhcurveto
          -13 vlineto
          -61 -9 -40 -39 vhcurveto
          356 -422 rmoveto
          -25 callgsubr
          321 hmoveto
          -25 callgsubr
          -321 73 rmoveto
          -29 callgsubr
          321 hmoveto
          -29 callgsubr
          endchar
        </CharString>
        <CharString name="peseta">
          450 618 -12 rmoveto
          41 30 13 3 6 hvcurveto
          58 vlineto
          -46 29 57 -28 82 hhcurveto
          112 83 44 123 hvcurveto
          205 -260 -69 100 vvcurveto
          28 18 24 46 48 24 -26 -40 vhcurveto
          -4 110 vlineto
          1 7 0 8 7 vvcurveto
          85 -71 58 -106 -29 -28 -4 -8 -25 vhcurveto
          -164 147 -93 hlineto
          -21 -147 rlineto
          -32 hlineto
          99 -19 -73 61 -127 hhcurveto
          -186 -686 127 245 53 hlineto
          135 79 70 113 14 hvcurveto
          26 -309 hlineto
          -65 27 -66 86 vhcurveto
          -420 366 rmoveto
          223 52 vlineto
          69 37 -41 -69 -70 -39 -43 -67 hvcurveto
          617 -272 rmoveto
          -44 -41 20 56 -1 hvcurveto
          8 -109 vlineto
          -1 -5 0 -4 -7 vvcurveto
          -23 4 -21 9 -20 vhcurveto
          -19 hlineto
          -28 -15 16 29 hvcurveto
          297 65 vlineto
          -5 -14 -2 -16 -17 -198 260 70 -113 vvcurveto
          -42 -37 -16 -36 vhcurveto
          endchar
        </CharString>
        <CharString name="pi">
          96 99 hmoveto
          120 hlineto
          40 84 32 222 9 122 rrcurveto
          178 -281 hlineto
          -80 8 -51 11 -16 vhcurveto
          117 hlineto
          -10 30 -6 44 82 vvcurveto
          272 102 vlineto
          10 98 rlineto
          -486 hlineto
          -104 -59 -11 -19 -31 hvcurveto
          15 -81 rlineto
          9 28 32 4 75 hhcurveto
          -4 -122 -35 -205 -42 -101 rrcurveto
          endchar
        </CharString>
        <CharString name="plus">
          -60 243 hmoveto
          97 206 188 98 2 callsubr
          -98 187 hlineto
          endchar
        </CharString>
        <CharString name="plusminus">
          -95 226 141 rmoveto
          97 207 188 97 2 callsubr
          -97 187 hlineto
          -187 -348 rmoveto
          -11 callsubr
          endchar
        </CharString>
        <CharString name="product">
          179 133 -128 rmoveto
          128 742 300 -742 127 742 94 109 -741 -109 92 hlineto
          endchar
        </CharString>
        <CharString name="q">
          402 -173 rmoveto
          120 699 -99 hlineto
          -10 -70 rlineto
          -6 hlineto
          55 -35 -59 27 -67 hhcurveto
          -129 -81 -84 -192 -189 85 -85 117 72 54 24 49 32 hvcurveto
          6 hlineto
          -120 30 rmoveto
          -90 -32 52 113 hvcurveto
          13 vlineto
          114 33 52 89 84 36 -59 -107 vhcurveto
          -12 vlineto
          -106 -35 -60 -85 vhcurveto
          endchar
        </CharString>
        <CharString name="question">
          234 191 rmoveto
          112 33 hlineto
          119 182 -8 185 vvcurveto
          115 -89 63 -137 -166 -81 -92 -112 -17 4 -18 0 -15 callgsubr
          0 -1 11 16 vvcurveto
          37 13 69 100 97 9 -60 -28 vhcurveto
          -107 -165 2 -160 vvcurveto
          -6 -239 rmoveto
          -32 callsubr
          endchar
        </CharString>
        <CharString name="questiondown">
          -33 253 399 -49 callgsubr
          51 -698 rmoveto
          166 80 92 112 17 -3 18 0 hvcurveto
          -122 hlineto
          0 1 -11 -16 vvcurveto
          -37 -13 -69 -100 -97 -9 60 28 vhcurveto
          107 165 -2 160 vvcurveto
          48 -112 -33 vlineto
          -119 -182 8 -185 vvcurveto
          -115 89 -63 137 vhcurveto
          endchar
        </CharString>
        <CharString name="quotedbl">
          -211 74 407 rmoveto
          86 hlineto
          23 -20 callsubr
          223 -132 rmoveto
          86 hlineto
          22 -20 callsubr
          endchar
        </CharString>
        <CharString name="quotedblbase">
          -202 60 -148 rmoveto
          -60 callsubr
          148 -148 rmoveto
          -60 callsubr
          endchar
        </CharString>
        <CharString name="quotedblleft">
          -202 59 411 -19 callsubr
          198 -116 -19 callsubr
          endchar
        </CharString>
        <CharString name="quotedblright">
          -202 60 411 rmoveto
          -60 callsubr
          148 -148 rmoveto
          -60 callsubr
          endchar
        </CharString>
        <CharString name="quoteleft">
          -385 69 411 rmoveto
          124 127 -49 hlineto
          49 148 rlineto
          -65 hlineto
          -59 -159 rlineto
          endchar
        </CharString>
        <CharString name="quotereversed">
          -385 129 414 rmoveto
          65 hlineto
          -50 145 rlineto
          50 127 -125 -116 hlineto
          endchar
        </CharString>
        <CharString name="quoteright">
          -385 65 411 rmoveto
          -60 callsubr
          endchar
        </CharString>
        <CharString name="quotesinglbase">
          -385 67 -148 rmoveto
          -60 callsubr
          endchar
        </CharString>
        <CharString name="quotesingle">
          -422 71 407 rmoveto
          86 hlineto
          23 -20 callsubr
          endchar
        </CharString>
        <CharString name="r">
          -40 callgsubr
          endchar
        </CharString>
        <CharString name="racute">
          -274 137 591 -100 callsubr
          -148 -723 rmoveto
          -78 callgsubr
          endchar
        </CharString>
        <CharString name="radical">
          -95 283 -148 rmoveto
          103 hlineto
          162 1005 rlineto
          -76 hlineto
          -133 -853 -9 27 -9 29 -11 30 rlinecurve
          -111 304 -169 -71 25 -73 65 25 rlineto
          endchar
        </CharString>
        <CharString name="rcaron">
          -274 131 588 -96 callsubr
          45 -723 rmoveto
          -78 callgsubr
          endchar
        </CharString>
        <CharString name="rcommaaccent">
          -40 callgsubr
          2 -756 -73 callgsubr
        </CharString>
        <CharString name="registered">
          -59 callsubr
          -147 93 rmoveto
          75 157 103 hlineto
          79 -157 rlineto
          80 hlineto
          -87 170 rlineto
          47 21 23 42 54 vvcurveto
          74 -43 51 -85 vhcurveto
          -192 hlineto
          75 -191 rmoveto
          129 107 vlineto
          39 23 -22 -41 -42 -26 -24 -36 hvcurveto
          endchar
        </CharString>
        <CharString name="revlogicalnot">
          -60 47 194 rmoveto
          93 164 397 96 -490 hlineto
          endchar
        </CharString>
        <CharString name="ring">
          -311 167 -42 callsubr
          endchar
        </CharString>
        <CharString name="s">
          -62 callsubr
          endchar
        </CharString>
        <CharString name="sacute">
          -107 220 591 -100 callsubr
          -32 -735 -97 callgsubr
          endchar
        </CharString>
        <CharString name="sacute.loclPLK">
          -107 220 591 -68 callgsubr
          21 -734 -97 callgsubr
          endchar
        </CharString>
        <CharString name="scaron">
          -107 214 588 -96 callsubr
          161 -735 -97 callgsubr
          endchar
        </CharString>
        <CharString name="scedilla">
          -107 501 155 rmoveto
          205 -327 -69 100 vvcurveto
          28 29 24 66 65 34 -25 -41 vhcurveto
          -4 117 vlineto
          1 1 11 10 vvcurveto
          85 -86 58 -124 -128 -95 -54 -103 vhcurveto
          -198 327 70 -113 vvcurveto
          -42 -53 -16 -53 -59 -55 20 56 -1 vhcurveto
          8 -117 vlineto
          -1 -1 -6 -9 vvcurveto
          -83 62 -65 123 -12 vhcurveto
          -11 -67 -65 callgsubr
          -50 callsubr
          4 23 rlineto
          115 7 83 47 112 vvcurveto
          endchar
        </CharString>
        <CharString name="scircumflex">
          -107 108 -77 callgsubr
          55 -735 -97 callgsubr
          endchar
        </CharString>
        <CharString name="scommaaccent">
          -62 callsubr
          -59 -218 -73 callgsubr
        </CharString>
        <CharString name="second">
          -208 50 509 -16 callgsubr
          -119 hlineto
          148 -177 -16 callgsubr
          -120 hlineto
          endchar
        </CharString>
        <CharString name="section">
          -88 271 -14 callsubr
          135 92 54 103 60 -30 41 -42 30 hvcurveto
          52 31 36 47 56 198 -333 -10 110 vvcurveto
          32 26 32 71 65 32 -26 -38 vhcurveto
          -5 122 vlineto
          1 1 11 10 vvcurveto
          85 -87 58 -126 -135 -92 -54 -103 -61 29 -41 43 -29 vhcurveto
          -52 -31 -36 -47 -56 -198 333 10 -111 vvcurveto
          -31 -26 -34 -71 -66 -31 26 41 vhcurveto
          4 -122 vlineto
          -1 -1 -11 -10 vvcurveto
          -85 87 -58 126 vhcurveto
          78 331 rmoveto
          -92 37 -97 30 85 vvcurveto
          26 19 23 27 16 vhcurveto
          93 -39 97 -27 -85 vvcurveto
          -27 -19 -23 -28 -16 vhcurveto
          endchar
        </CharString>
        <CharString name="semicolon">
          -330 94 399 -49 callgsubr
          -674 vmoveto
          -60 callsubr
          endchar
        </CharString>
        <CharString name="seven">
          -88 137 hmoveto
          131 hlineto
          -1 24 0 8 19 vvcurveto
          211 144 208 115 138 vhcurveto
          78 -490 -109 344 vlineto
          -119 -141 -124 -210 -226 vvcurveto
          endchar
        </CharString>
        <CharString name="seveneighths">
          190 86 -12 -59 callgsubr
          -518 -373 rmoveto
          81 hlineto
          -1 15 0 9 10 vvcurveto
          103 73 104 58 69 vhcurveto
          51 -262 -68 170 vlineto
          -69 -82 -50 -101 -110 vvcurveto
          531 -337 -84 callgsubr
        </CharString>
        <CharString name="six">
          -88 293 -12 rmoveto
          133 97 87 139 129 -65 97 -143 -82 -55 -45 -17 -14 hvcurveto
          137 2 17 85 100 hhcurveto
          67 29 -42 -74 hvcurveto
          122 hlineto
          121 -63 93 -150 -157 -90 -91 -284 -254 95 -81 157 vhcurveto
          -6 98 rmoveto
          -78 -36 56 72 76 36 54 78 77 36 -54 -75 -72 -36 -57 -77 hvcurveto
          endchar
        </CharString>
        <CharString name="slash">
          -366 1 -49 rmoveto
          87 hlineto
          189 784 rlineto
          -86 hlineto
          endchar
        </CharString>
        <CharString name="space">
          -366 endchar
        </CharString>
        <CharString name="sterling">
          -3 callgsubr
          189 rlineto
          160 98 -159 125 -33 callgsubr
          -111 -81 -98 81 -189 -67 vlineto
          endchar
        </CharString>
        <CharString name="summation">
          69 59 -128 rmoveto
          631 112 -470 4 hlineto
          289 327 -266 295 rlineto
          4 428 109 -602 -98 vlineto
          291 -326 -301 -340 rlineto
          endchar
        </CharString>
        <CharString name="t">
          -330 203 -12 rmoveto
          -73 callsubr
          -65 29 -66 97 vhcurveto
          endchar
        </CharString>
        <CharString name="tbar">
          -330 203 -12 rmoveto
          28 36 8 8 20 hvcurveto
          82 -47 vlineto
          -29 -14 16 29 hvcurveto
          126 90 68 -90 103 90 98 -90 147 -96 vlineto
          -22 -147 rlineto
          -66 -98 64 -103 -64 -68 64 -138 hlineto
          -65 29 -66 97 vhcurveto
          endchar
        </CharString>
        <CharString name="tcaron">
          -201 327 471 rmoveto
          63 hlineto
          57 124 rlineto
          104 -120 -115 48 vlineto
          -172 -596 rmoveto
          -73 callsubr
          -65 29 -66 97 vhcurveto
          endchar
        </CharString>
        <CharString name="thorn">
          -26 callgsubr
          191 -82 85 -120 -72 -54 -24 -49 -32 hvcurveto
          -6 267 -64 callgsubr
          240 -641 rmoveto
          -85 -35 60 106 hvcurveto
          12 vlineto
          107 36 59 -36 callgsubr
        </CharString>
        <CharString name="three">
          -88 280 -12 rmoveto
          140 99 74 122 91 -53 55 -71 22 hvcurveto
          4 vlineto
          62 29 48 44 81 vvcurveto
          122 -93 66 -136 -133 -94 -74 -114 vhcurveto
          -25 121 16 vlineto
          67 44 32 64 59 44 -29 -69 -70 -50 -34 -60 vhcurveto
          -61 -98 58 hlineto
          67 61 -21 -86 -74 -49 -33 -71 -77 -43 37 68 hvcurveto
          18 -122 -15 vlineto
          -125 87 -81 159 vhcurveto
          endchar
        </CharString>
        <CharString name="threeeighths">
          190 168 326 rmoveto
          75 53 40 65 43 -23 28 -37 14 hvcurveto
          4 vlineto
          32 16 21 -67 callgsubr
          47 -43 84 vhcurveto
          -65 -338 -59 callgsubr
          13 -710 -84 callgsubr
        </CharString>
        <CharString name="threequarters">
          190 171 326 -19 callgsubr
          -24 -30 callsubr
          22 -67 callgsubr
          46 -43 85 vhcurveto
          -68 -338 -59 callgsubr
          14 -697 -45 callsubr
        </CharString>
        <CharString name="tilde">
          -311 607 vmoveto
          -103 callgsubr
          endchar
        </CharString>
        <CharString name="trademark">
          356 219 281 rmoveto
          73 336 139 69 -352 -69 140 hlineto
          259 -337 rmoveto
          67 311 3 hlineto
          105 -311 rlineto
          69 hlineto
          103 306 rlineto
          6 -306 73 406 -109 hlineto
          -102 -307 rlineto
          -4 hlineto
          -100 307 rlineto
          -111 hlineto
          endchar
        </CharString>
        <CharString name="two">
          -88 42 hmoveto
          476 109 -330 hlineto
          5 10 8 10 11 11 rrcurveto
          86 86 216 85 186 vvcurveto
          83 -45 118 -176 -131 -113 -61 -147 -24 4 -16 0 vhcurveto
          119 41 hlineto
          68 37 39 78 79 26 -50 -43 -32 -10 -31 -18 -26 vhcurveto
          -85 -124 -237 -70 -188 vvcurveto
          endchar
        </CharString>
        <CharString name="u">
          237 -12 -103 callsubr
          endchar
        </CharString>
        <CharString name="uacute">
          247 591 -100 callsubr
          -91 -735 -103 callsubr
          endchar
        </CharString>
        <CharString name="ubreve">
          294 -72 callsubr
          -57 -605 -103 callsubr
          endchar
        </CharString>
        <CharString name="ucircumflex">
          135 -77 callgsubr
          -4 -735 -103 callsubr
          endchar
        </CharString>
        <CharString name="udieresis">
          141 -71 callsubr
          -106 -735 -103 callsubr
          endchar
        </CharString>
        <CharString name="ugrave">
          247 591 -86 callgsubr
          98 -732 -103 callsubr
          endchar
        </CharString>
        <CharString name="uhorn">
          496 723 -88 callsubr
          endchar
        </CharString>
        <CharString name="uhungarumlaut">
          166 591 -69 callsubr
          -165 -735 -103 callsubr
          endchar
        </CharString>
        <CharString name="umacron">
          142 617 -62 callgsubr
          95 -711 -103 callsubr
          endchar
        </CharString>
        <CharString name="underscore">
          -88 -148 vmoveto
          556 83 -556 hlineto
          endchar
        </CharString>
        <CharString name="underscoredbl">
          -92 -143 vmoveto
          552 78 -552 hlineto
          -214 vmoveto
          552 78 -552 hlineto
          endchar
        </CharString>
        <CharString name="uni00A0">
          -366 endchar
        </CharString>
        <CharString name="uni00AD">
          -14 callgsubr
        </CharString>
        <CharString name="uni00B2">
          -311 41 331 -16 callsubr
          20 15 19 14 rrcurveto
          50 34 61 41 75 vvcurveto
          44 -25 63 -94 -70 -61 -31 -74 -15 3 -12 0 -20 callgsubr
          -22 -18 -15 -5 -15 -9 -12 vhcurveto
          -15 -21 -25 -18 -26 -20 3 callsubr
        </CharString>
        <CharString name="uni00B3">
          -311 168 326 rmoveto
          75 53 40 65 43 -23 28 -37 14 hvcurveto
          4 vlineto
          32 16 21 -67 callgsubr
          47 -43 84 vhcurveto
          endchar
        </CharString>
        <CharString name="uni00B5">
          -52 callsubr
        </CharString>
        <CharString name="uni00B9">
          -311 54 329 rmoveto
          236 69 -76 288 -39 hlineto
          -34 -20 -54 -16 -33 -4 rrcurveto
          -49 84 -199 -84 vlineto
          endchar
        </CharString>
        <CharString name="uni0162">
          -33 369 hmoveto
          576 -43 callgsubr
          -576 23 vlineto
          -12 -77 -65 callgsubr
          -50 callsubr
          5 34 rlineto
          endchar
        </CharString>
        <CharString name="uni0163">
          -330 199 -34 rmoveto
          3 22 rlineto
          1 hlineto
          -73 callsubr
          -44 13 -44 38 -24 vhcurveto
          -13 -84 -65 callgsubr
          -50 callsubr
          endchar
        </CharString>
        <CharString name="uni018F">
          114 375 -12 rmoveto
          226 108 110 241 247 -114 112 -226 -191 -134 -80 -169 hvcurveto
          125 hlineto
          103 85 42 109 141 66 -71 -147 7 vhcurveto
          -533 -53 hlineto
          -236 117 -99 214 vhcurveto
          4 105 rmoveto
          -120 -82 51 132 hvcurveto
          398 hlineto
          -129 -14 -58 -54 -124 hhcurveto
          endchar
        </CharString>
        <CharString name="uni019D">
          78 66 -14 callsubr
          99 29 68 66 hvcurveto
          450 vlineto
          20 -2 36 8 vvcurveto
          5 3 4 -7 18 -30 17 -25 rlinecurve
          295 -1 callsubr
          120 686 -123 -408 hlineto
          -13 2 -35 -6 vvcurveto
          -5 -2 -3 4 -20 35 -11 16 rlinecurve
          -298 409 rlineto
          -122 -726 hlineto
          -29 -15 -16 -29 vhcurveto
          -49 -82 hlineto
          -8 21 38 -7 29 hhcurveto
          endchar
        </CharString>
        <CharString name="uni01C4">
          689 974 733 -96 callsubr
          -797 -868 rmoveto
          -61 callgsubr
        </CharString>
        <CharString name="uni01C5">
          578 918 588 -96 callsubr
          -741 -723 rmoveto
          -81 callgsubr
          399 -109 rmoveto
          -81 callsubr
          endchar
        </CharString>
        <CharString name="uni01C6">
          448 -76 callgsubr
          542 600 -96 callsubr
          -68 -723 rmoveto
          -81 callsubr
          -332 35 -67 callsubr
          endchar
        </CharString>
        <CharString name="uni01C7">
          485 71 hmoveto
          -51 callgsubr
          770 -698 -79 callgsubr
        </CharString>
        <CharString name="uni01C8">
          207 662 -21 callsubr
          -591 -723 rmoveto
          -51 callgsubr
          582 -868 -83 callsubr
        </CharString>
        <CharString name="uni01C9">
          -126 -29 callsubr
          259 -115 -49 callsubr
          -9 -905 -83 callsubr
        </CharString>
        <CharString name="uni01CA">
          615 -53 callgsubr
          900 -698 -79 callgsubr
        </CharString>
        <CharString name="uni01CB">
          337 792 -21 callsubr
          -721 -723 rmoveto
          -96 callgsubr
          712 -868 -83 callsubr
        </CharString>
        <CharString name="uni01CC">
          207 662 -21 callsubr
          -592 -723 rmoveto
          -80 callgsubr
          583 -708 -83 callsubr
        </CharString>
        <CharString name="uni01CD">
          59 298 733 -96 callsubr
          -188 -868 -102 callgsubr
        </CharString>
        <CharString name="uni01CE">
          -88 224 588 -96 callsubr
          80 -735 -107 callsubr
        </CharString>
        <CharString name="uni01CF">
          -366 85 733 -96 callsubr
          97 -868 -57 callgsubr
        </CharString>
        <CharString name="uni01D0">
          -366 85 588 -96 callsubr
          100 -4 callgsubr
          endchar
        </CharString>
        <CharString name="uni01D1">
          134 335 733 -96 callsubr
          160 -880 -106 callgsubr
          endchar
        </CharString>
        <CharString name="uni01D2">
          242 588 -96 callsubr
          160 -735 -105 callsubr
          endchar
        </CharString>
        <CharString name="uni01D3">
          78 307 733 -96 callsubr
          159 -880 rmoveto
          -102 callsubr
          endchar
        </CharString>
        <CharString name="uni01D4">
          241 588 -96 callsubr
          102 -735 -103 callsubr
          endchar
        </CharString>
        <CharString name="uni01D5">
          78 208 929 -62 callgsubr
          -1 -253 -93 callsubr
          -49 -880 rmoveto
          -102 callsubr
          endchar
        </CharString>
        <CharString name="uni01D6">
          142 784 -62 callgsubr
          -1 -253 -93 callsubr
          -106 -735 -103 callsubr
          endchar
        </CharString>
        <CharString name="uni01D7">
          -1 callgsubr
          903 -100 callsubr
          -187 -277 -93 callsubr
          -49 -880 rmoveto
          -102 callsubr
          endchar
        </CharString>
        <CharString name="uni01D8">
          247 758 -100 callsubr
          -187 -277 -93 callsubr
          -106 -735 -103 callsubr
          endchar
        </CharString>
        <CharString name="uni01D9">
          78 307 900 -96 callsubr
          6 -277 -93 callsubr
          -49 -880 rmoveto
          -102 callsubr
          endchar
        </CharString>
        <CharString name="uni01DA">
          241 755 -96 callsubr
          6 -277 -93 callsubr
          -106 -735 -103 callsubr
          endchar
        </CharString>
        <CharString name="uni01DB">
          -1 callgsubr
          903 -86 callgsubr
          2 -274 -93 callsubr
          -49 -880 rmoveto
          -102 callsubr
          endchar
        </CharString>
        <CharString name="uni01DC">
          247 758 -86 callgsubr
          2 -274 -93 callsubr
          -106 -735 -103 callsubr
          endchar
        </CharString>
        <CharString name="uni01EA">
          134 735 343 rmoveto
          241 -131 114 -215 -215 -130 -114 -241 -241 130 -114 215 14 15 1 1 13 vhcurveto
          -18 -22 -13 -25 -36 vvcurveto
          -68 55 -21 49 23 21 5 9 24 vhcurveto
          -39 callgsubr
          130 42 76 110 183 vvcurveto
          -560 -11 rmoveto
          21 vlineto
          157 76 80 138 139 76 -80 -157 vhcurveto
          -21 vlineto
          -53 callsubr
          endchar
        </CharString>
        <CharString name="uni01EB">
          555 263 rmoveto
          189 -87 86 -172 -172 -87 -86 -189 -189 87 -86 172 8 7 0 1 7 vhcurveto
          -17 -22 -13 -25 -35 -8 callgsubr
          -27 vlineto
          -36 -14 25 27 27 20 28 13 14 hvcurveto
          92 35 47 83 138 vvcurveto
          -394 -7 rmoveto
          14 vlineto
          114 38 56 97 96 39 -56 -114 vhcurveto
          -14 vlineto
          -48 callsubr
          endchar
        </CharString>
        <CharString name="uni01F1">
          689 71 hmoveto
          -61 callgsubr
        </CharString>
        <CharString name="uni01F2">
          578 71 hmoveto
          -81 callgsubr
          399 -109 rmoveto
          -81 callsubr
          endchar
        </CharString>
        <CharString name="uni01F3">
          448 -76 callgsubr
          368 12 rmoveto
          -81 callsubr
          -332 35 -67 callsubr
          endchar
        </CharString>
        <CharString name="uni01F4">
          134 544 865 -47 callgsubr
          -70 -475 -99 callsubr
          endchar
        </CharString>
        <CharString name="uni01F5">
          248 591 -100 callsubr
          -172 -905 -104 callgsubr
        </CharString>
        <CharString name="uni0200">
          59 242 736 -91 callsubr
          -300 -865 -102 callgsubr
        </CharString>
        <CharString name="uni0201">
          -88 168 591 -91 callsubr
          -32 -732 -107 callsubr
        </CharString>
        <CharString name="uni0202">
          59 196 738 -89 callsubr
          -192 -82 callgsubr
          endchar
        </CharString>
        <CharString name="uni0203">
          -88 122 593 -89 callsubr
          76 -94 callsubr
          endchar
        </CharString>
        <CharString name="uni0204">
          23 224 736 -91 callsubr
          -215 -865 -84 callsubr
        </CharString>
        <CharString name="uni0205">
          -88 168 591 -91 callsubr
          59 -732 -105 callgsubr
          endchar
        </CharString>
        <CharString name="uni0206">
          23 178 738 -89 callsubr
          -107 -738 -84 callsubr
        </CharString>
        <CharString name="uni0207">
          -88 122 593 -89 callsubr
          167 -605 -105 callgsubr
          endchar
        </CharString>
        <CharString name="uni0208">
          -366 29 736 -91 callsubr
          -15 -865 -57 callgsubr
        </CharString>
        <CharString name="uni0209">
          -366 29 591 -91 callsubr
          -12 -720 -58 callsubr
        </CharString>
        <CharString name="uni020A">
          -366 -17 738 -89 callsubr
          93 -738 -57 callgsubr
        </CharString>
        <CharString name="uni020B">
          -366 -17 593 -89 callsubr
          96 -593 -58 callsubr
        </CharString>
        <CharString name="uni020C">
          134 279 736 -91 callsubr
          48 -877 -106 callgsubr
          endchar
        </CharString>
        <CharString name="uni020D">
          186 591 -91 callsubr
          48 -732 -105 callsubr
          endchar
        </CharString>
        <CharString name="uni020E">
          134 233 738 -89 callsubr
          156 -750 -106 callgsubr
          endchar
        </CharString>
        <CharString name="uni020F">
          140 593 -89 callsubr
          156 -605 -105 callsubr
          endchar
        </CharString>
        <CharString name="uni0210">
          78 251 736 -91 callsubr
          -242 -865 rmoveto
          -89 callgsubr
          endchar
        </CharString>
        <CharString name="uni0211">
          -274 75 591 -91 callsubr
          -67 -720 rmoveto
          -78 callgsubr
          endchar
        </CharString>
        <CharString name="uni0212">
          78 205 738 -89 callsubr
          -134 -738 rmoveto
          -89 callgsubr
          endchar
        </CharString>
        <CharString name="uni0213">
          -274 29 593 -89 callsubr
          41 -593 rmoveto
          -78 callgsubr
          endchar
        </CharString>
        <CharString name="uni0214">
          78 251 736 -91 callsubr
          47 -877 rmoveto
          -102 callsubr
          endchar
        </CharString>
        <CharString name="uni0215">
          185 591 -91 callsubr
          -10 -732 -103 callsubr
          endchar
        </CharString>
        <CharString name="uni0216">
          78 205 738 -89 callsubr
          155 -750 rmoveto
          -102 callsubr
          endchar
        </CharString>
        <CharString name="uni0217">
          139 593 -89 callsubr
          98 -605 -103 callsubr
          endchar
        </CharString>
        <CharString name="uni021A">
          -41 callsubr
          6 -806 -73 callgsubr
        </CharString>
        <CharString name="uni021B">
          -330 203 -12 rmoveto
          -73 callsubr
          -65 29 -66 97 vhcurveto
          -93 -218 -73 callgsubr
        </CharString>
        <CharString name="uni0232">
          23 181 762 -62 callgsubr
          90 -844 rmoveto
          -85 callgsubr
          endchar
        </CharString>
        <CharString name="uni0232.loclGUA">
          23 181 762 -62 callgsubr
          143 -856 -95 callgsubr
        </CharString>
        <CharString name="uni0233">
          -107 115 617 -62 callgsubr
          24 -881 -98 callsubr
          endchar
        </CharString>
        <CharString name="uni0233.loclGUA">
          143 617 -62 callgsubr
          135 -881 -95 callsubr
        </CharString>
        <CharString name="uni0237">
          -385 61 -182 -83 callsubr
        </CharString>
        <CharString name="uni0259">
          -88 272 -12 rmoveto
          164 84 88 187 187 -84 88 -164 -137 -98 -62 -134 hvcurveto
          118 hlineto
          70 47 31 68 85 40 -50 -101 2 vhcurveto
          -360 -36 hlineto
          -189 79 -79 156 vhcurveto
          95 vmoveto
          -68 -42 33 91 hvcurveto
          233 hlineto
          -81 -8 -39 -43 -76 hhcurveto
          endchar
        </CharString>
        <CharString name="uni0272">
          61 -14 callsubr
          100 29 68 66 hvcurveto
          354 vlineto
          -85 callsubr
          -76 -56 -33 -49 -37 vhcurveto
          -7 hlineto
          -10 70 rlineto
          -99 -566 hlineto
          -29 -16 -16 -29 vhcurveto
          -49 -82 hlineto
          -8 20 37 -7 28 hhcurveto
          endchar
        </CharString>
        <CharString name="uni02BC">
          -391 66 459 rmoveto
          63 hlineto
          57 -38 callsubr
          endchar
        </CharString>
        <CharString name="uni02C9">
          -311 14 617 -62 callgsubr
          endchar
        </CharString>
        <CharString name="uni030F">
          -644 -219 591 -91 callsubr
          endchar
        </CharString>
        <CharString name="uni0311">
          -644 -322 593 -89 callsubr
          endchar
        </CharString>
        <CharString name="uni031B">
          -644 -190 686 rmoveto
          -127 64 vlineto
          -16 -45 -42 -25 -69 -9 rrcurveto
          -64 vlineto
          141 19 67 65 132 vvcurveto
          54 vlineto
          endchar
        </CharString>
        <CharString name="uni0326">
          -644 -205 -230 -73 callgsubr
        </CharString>
        <CharString name="uni0328">
          -644 -153 -41 callgsubr
        </CharString>
        <CharString name="uni0394">
          57 3 hmoveto
          696 hlineto
          -268 -66 callsubr
          -97 -577 rmoveto
          4 10 19 41 16 43 89 243 rcurveline
          14 36 24 79 5 13 rrcurveto
          5 hlineto
          5 -13 25 -79 13 -36 92 -242 rcurveline
          15 -42 19 -42 4 -11 rrcurveto
          endchar
        </CharString>
        <CharString name="uni03A9">
          -65 callsubr
        </CharString>
        <CharString name="uni03BC">
          -52 callsubr
        </CharString>
        <CharString name="uni1E0C">
          78 71 hmoveto
          -81 callgsubr
          -44 -282 rmoveto
          3 callgsubr
        </CharString>
        <CharString name="uni1E0D">
          -76 callgsubr
          36 103 -67 callsubr
          -46 -264 rmoveto
          3 callgsubr
        </CharString>
        <CharString name="uni1E24">
          78 71 hmoveto
          -46 callsubr
          230 -859 rmoveto
          3 callgsubr
        </CharString>
        <CharString name="uni1E25">
          70 hmoveto
          -75 callgsubr
          -73 -52 -30 -42 -33 vhcurveto
          -7 257 -64 callgsubr
          166 -896 rmoveto
          3 callgsubr
        </CharString>
        <CharString name="uni1E44">
          78 301 751 -87 callsubr
          -230 -869 rmoveto
          -96 callgsubr
          endchar
        </CharString>
        <CharString name="uni1E45">
          236 -44 callsubr
          -166 -724 rmoveto
          -83 callgsubr
        </CharString>
        <CharString name="uni1E5A">
          -54 callsubr
          -122 -546 rmoveto
          3 callgsubr
        </CharString>
        <CharString name="uni1E5B">
          -40 callgsubr
          -699 vmoveto
          3 callgsubr
        </CharString>
        <CharString name="uni1E62">
          -64 callsubr
          -57 -161 rmoveto
          3 callgsubr
        </CharString>
        <CharString name="uni1E63">
          -62 callsubr
          -61 -161 rmoveto
          3 callgsubr
        </CharString>
        <CharString name="uni1E6C">
          -41 callsubr
          4 -749 rmoveto
          3 callgsubr
        </CharString>
        <CharString name="uni1E6D">
          -330 203 -12 rmoveto
          -73 callsubr
          -65 29 -66 97 vhcurveto
          -95 -161 rmoveto
          3 callgsubr
        </CharString>
        <CharString name="uni1E92">
          -33 19 hmoveto
          -76 callsubr
          227 -234 rmoveto
          3 callgsubr
        </CharString>
        <CharString name="uni1E93">
          -144 22 hmoveto
          -81 callsubr
          168 -229 rmoveto
          3 callgsubr
        </CharString>
        <CharString name="uni1E9E">
          144 71 hmoveto
          128 394 hlineto
          133 75 63 142 103 50 -40 -61 -49 -33 -45 -54 vhcurveto
          -190 -111 193 hlineto
          75 43 -35 -50 -45 -34 -44 -64 hvcurveto
          -213 -110 226 hlineto
          135 81 81 107 82 -48 57 -77 20 hvcurveto
          4 vlineto
          50 20 41 59 70 vvcurveto
          120 -120 78 -174 -207 -128 -100 -197 vhcurveto
          endchar
        </CharString>
        <CharString name="uni1EA0">
          59 4 hmoveto
          -106 callsubr
          -172 -430 rmoveto
          3 callgsubr
        </CharString>
        <CharString name="uni1EA1">
          -88 198 -12 -107 callgsubr
          -16 -257 rmoveto
          3 callgsubr
        </CharString>
        <CharString name="uni1EA2">
          59 320 736 -101 callgsubr
          -316 -792 -102 callgsubr
        </CharString>
        <CharString name="uni1EA3">
          -88 246 591 -101 callgsubr
          -48 -659 -107 callsubr
        </CharString>
        <CharString name="uni1EA4">
          59 446 831 -100 callsubr
          -335 -230 -104 callsubr
          -294 -868 -102 callgsubr
        </CharString>
        <CharString name="uni1EA5">
          -88 372 686 -100 callsubr
          -335 -230 -104 callsubr
          -26 -735 -107 callsubr
        </CharString>
        <CharString name="uni1EA6">
          59 486 831 -86 callgsubr
          -186 -227 -104 callsubr
          -294 -868 -102 callgsubr
        </CharString>
        <CharString name="uni1EA7">
          -88 412 686 -86 callgsubr
          -186 -227 -104 callsubr
          -26 -735 -107 callsubr
        </CharString>
        <CharString name="uni1EA8">
          59 462 831 -101 callgsubr
          -270 -154 -104 callsubr
          -294 -868 -102 callgsubr
        </CharString>
        <CharString name="uni1EA9">
          -88 388 686 -101 callgsubr
          -270 -154 -104 callsubr
          -26 -735 -107 callsubr
        </CharString>
        <CharString name="uni1EAA">
          59 187 912 rmoveto
          -103 callgsubr
          5 -179 -104 callsubr
          -294 -868 -102 callgsubr
        </CharString>
        <CharString name="uni1EAB">
          -88 113 767 rmoveto
          -103 callgsubr
          5 -179 -104 callsubr
          -26 -735 -107 callsubr
        </CharString>
        <CharString name="uni1EAC">
          59 192 -77 callsubr
          -294 -868 rmoveto
          -106 callsubr
          -172 -430 rmoveto
          3 callgsubr
        </CharString>
        <CharString name="uni1EAD">
          -26 callsubr
          -26 -735 -107 callgsubr
          -16 -257 rmoveto
          3 callgsubr
        </CharString>
        <CharString name="uni1EAE">
          59 304 868 -12 callsubr
          -262 -91 callgsubr
        </CharString>
        <CharString name="uni1EAF">
          -88 230 723 -12 callsubr
          -262 -100 callgsubr
        </CharString>
        <CharString name="uni1EB0">
          59 302 868 -86 callgsubr
          157 -259 -91 callgsubr
        </CharString>
        <CharString name="uni1EB1">
          -88 232 723 -86 callgsubr
          153 -259 -100 callgsubr
        </CharString>
        <CharString name="uni1EB2">
          59 320 868 -40 callsubr
          -186 -91 callgsubr
        </CharString>
        <CharString name="uni1EB3">
          -88 246 723 -40 callsubr
          -186 -100 callgsubr
        </CharString>
        <CharString name="uni1EB4">
          59 187 912 rmoveto
          -103 callgsubr
          164 -174 -91 callgsubr
        </CharString>
        <CharString name="uni1EB5">
          -88 113 767 rmoveto
          -103 callgsubr
          164 -174 -100 callgsubr
        </CharString>
        <CharString name="uni1EB6">
          59 351 738 -90 callgsubr
          -172 -430 rmoveto
          3 callgsubr
        </CharString>
        <CharString name="uni1EB7">
          -88 277 593 -99 callgsubr
          -16 -257 rmoveto
          3 callgsubr
        </CharString>
        <CharString name="uni1EB8">
          23 71 hmoveto
          -93 callgsubr
          203 -859 rmoveto
          3 callgsubr
        </CharString>
        <CharString name="uni1EB9">
          -88 289 -12 -105 callgsubr
          -177 -492 rmoveto
          3 callgsubr
        </CharString>
        <CharString name="uni1EBA">
          23 302 736 -101 callgsubr
          -231 -792 -84 callsubr
        </CharString>
        <CharString name="uni1EBB">
          -88 246 591 -101 callgsubr
          43 -659 -105 callgsubr
          endchar
        </CharString>
        <CharString name="uni1EBC">
          23 167 752 rmoveto
          -103 callgsubr
          -96 -752 -84 callsubr
        </CharString>
        <CharString name="uni1EBD">
          -88 111 607 rmoveto
          -103 callgsubr
          178 -619 -105 callgsubr
          endchar
        </CharString>
        <CharString name="uni1EBE">
          23 428 831 -100 callsubr
          -335 -230 -80 callsubr
        </CharString>
        <CharString name="uni1EBF">
          -88 372 686 -100 callsubr
          -335 -230 -104 callsubr
          65 -735 -105 callgsubr
          endchar
        </CharString>
        <CharString name="uni1EC0">
          23 468 831 -86 callgsubr
          -186 -227 -80 callsubr
        </CharString>
        <CharString name="uni1EC1">
          -88 412 686 -86 callgsubr
          -186 -227 -104 callsubr
          65 -735 -105 callgsubr
          endchar
        </CharString>
        <CharString name="uni1EC2">
          23 444 831 -101 callgsubr
          -270 -154 -80 callsubr
        </CharString>
        <CharString name="uni1EC3">
          -88 388 686 -101 callgsubr
          -270 -154 -104 callsubr
          65 -735 -105 callgsubr
          endchar
        </CharString>
        <CharString name="uni1EC4">
          23 169 912 rmoveto
          -103 callgsubr
          5 -179 -80 callsubr
        </CharString>
        <CharString name="uni1EC5">
          -88 113 767 rmoveto
          -103 callgsubr
          5 -179 -104 callsubr
          65 -735 -105 callgsubr
          endchar
        </CharString>
        <CharString name="uni1EC6">
          23 174 733 -78 callsubr
          203 -859 rmoveto
          3 callgsubr
        </CharString>
        <CharString name="uni1EC7">
          -26 callsubr
          65 -735 -105 callgsubr
          -177 -492 rmoveto
          3 callgsubr
        </CharString>
        <CharString name="uni1EC8">
          -366 107 736 -101 callgsubr
          -31 -792 -57 callgsubr
        </CharString>
        <CharString name="uni1EC9">
          -366 107 591 -101 callgsubr
          -28 -647 -58 callsubr
        </CharString>
        <CharString name="uni1ECA">
          -366 76 hmoveto
          -43 callsubr
          3 -859 rmoveto
          3 callgsubr
        </CharString>
        <CharString name="uni1ECB">
          -385 70 608 -38 callgsubr
          -699 vmoveto
          3 callgsubr
        </CharString>
        <CharString name="uni1ECC">
          134 389 -12 -106 callgsubr
          -60 -269 rmoveto
          3 callgsubr
        </CharString>
        <CharString name="uni1ECD">
          296 -12 -105 callsubr
          -60 -259 rmoveto
          3 callgsubr
        </CharString>
        <CharString name="uni1ECE">
          134 357 736 -101 callgsubr
          32 -804 -106 callgsubr
          endchar
        </CharString>
        <CharString name="uni1ECF">
          264 591 -101 callgsubr
          32 -659 -105 callsubr
          endchar
        </CharString>
        <CharString name="uni1ED0">
          134 483 831 -100 callsubr
          -335 -230 -104 callsubr
          54 -880 -106 callgsubr
          endchar
        </CharString>
        <CharString name="uni1ED1">
          390 686 -100 callsubr
          -335 -230 -104 callsubr
          54 -735 -105 callsubr
          endchar
        </CharString>
        <CharString name="uni1ED2">
          134 523 831 -86 callgsubr
          -186 -227 -104 callsubr
          54 -880 -106 callgsubr
          endchar
        </CharString>
        <CharString name="uni1ED3">
          430 686 -86 callgsubr
          -186 -227 -104 callsubr
          54 -735 -105 callsubr
          endchar
        </CharString>
        <CharString name="uni1ED4">
          134 499 831 -101 callgsubr
          -270 -154 -104 callsubr
          54 -880 -106 callgsubr
          endchar
        </CharString>
        <CharString name="uni1ED5">
          406 686 -101 callgsubr
          -270 -154 -104 callsubr
          54 -735 -105 callsubr
          endchar
        </CharString>
        <CharString name="uni1ED6">
          134 224 912 rmoveto
          -103 callgsubr
          5 -179 -104 callsubr
          54 -880 -106 callgsubr
          endchar
        </CharString>
        <CharString name="uni1ED7">
          131 767 rmoveto
          -103 callgsubr
          5 -179 -104 callsubr
          54 -735 -105 callsubr
          endchar
        </CharString>
        <CharString name="uni1ED8">
          134 229 -77 callsubr
          54 -880 -106 callgsubr
          -60 -269 rmoveto
          3 callgsubr
        </CharString>
        <CharString name="uni1ED9">
          -24 callgsubr
          54 -735 -105 callsubr
          -60 -259 rmoveto
          3 callgsubr
        </CharString>
        <CharString name="uni1EDA">
          134 544 865 -47 callgsubr
          209 92 -97 callsubr
          endchar
        </CharString>
        <CharString name="uni1EDB">
          451 720 -47 callgsubr
          166 95 -94 callgsubr
          endchar
        </CharString>
        <CharString name="uni1EDC">
          134 436 736 -42 callgsubr
          304 92 -97 callsubr
          endchar
        </CharString>
        <CharString name="uni1EDD">
          343 591 -42 callgsubr
          261 95 -94 callgsubr
          endchar
        </CharString>
        <CharString name="uni1EDE">
          134 402 811 -68 callsubr
          243 17 -97 callsubr
          endchar
        </CharString>
        <CharString name="uni1EDF">
          309 666 -68 callsubr
          200 20 -94 callgsubr
          endchar
        </CharString>
        <CharString name="uni1EE0">
          134 323 787 -74 callgsubr
          322 41 -97 callsubr
          endchar
        </CharString>
        <CharString name="uni1EE1">
          230 642 -74 callgsubr
          279 44 -94 callgsubr
          endchar
        </CharString>
        <CharString name="uni1EE2">
          134 645 828 -97 callsubr
          -275 -526 rmoveto
          3 callgsubr
        </CharString>
        <CharString name="uni1EE3">
          509 686 -94 callgsubr
          -195 -443 rmoveto
          3 callgsubr
        </CharString>
        <CharString name="uni1EE4">
          78 360 -12 rmoveto
          -102 callsubr
          -59 -161 rmoveto
          3 callgsubr
        </CharString>
        <CharString name="uni1EE5">
          237 -12 -103 callsubr
          -1 -161 rmoveto
          3 callgsubr
        </CharString>
        <CharString name="uni1EE6">
          78 329 736 -40 callsubr
          -804 rmoveto
          -102 callsubr
          endchar
        </CharString>
        <CharString name="uni1EE7">
          263 591 -101 callgsubr
          -26 -659 -103 callsubr
          endchar
        </CharString>
        <CharString name="uni1EE8">
          78 613 868 -87 callgsubr
          -242 -3 -47 callgsubr
          endchar
        </CharString>
        <CharString name="uni1EE9">
          496 723 -88 callsubr
          -191 -3 -47 callgsubr
          endchar
        </CharString>
        <CharString name="uni1EEA">
          78 613 868 -87 callgsubr
          -350 -132 -42 callgsubr
          endchar
        </CharString>
        <CharString name="uni1EEB">
          496 723 -88 callsubr
          -299 -132 -42 callgsubr
          endchar
        </CharString>
        <CharString name="uni1EEC">
          78 374 811 -68 callsubr
          239 57 -87 callgsubr
          endchar
        </CharString>
        <CharString name="uni1EED">
          308 666 -68 callsubr
          188 57 -88 callsubr
          endchar
        </CharString>
        <CharString name="uni1EEE">
          78 613 868 -87 callgsubr
          -463 -81 -74 callgsubr
          endchar
        </CharString>
        <CharString name="uni1EEF">
          496 723 -88 callsubr
          -412 -81 -74 callgsubr
          endchar
        </CharString>
        <CharString name="uni1EF0">
          78 613 868 -87 callgsubr
          -457 -1041 rmoveto
          3 callgsubr
        </CharString>
        <CharString name="uni1EF1">
          496 723 -88 callsubr
          -405 -896 rmoveto
          3 callgsubr
        </CharString>
        <CharString name="uni1EF4">
          23 271 hmoveto
          -85 callgsubr
          3 -452 rmoveto
          3 callgsubr
        </CharString>
        <CharString name="uni1EF5">
          -107 139 -182 -98 callsubr
          218 9 rmoveto
          3 callgsubr
        </CharString>
        <CharString name="uni1EF6">
          23 302 736 -101 callgsubr
          -31 -792 rmoveto
          -85 callgsubr
          endchar
        </CharString>
        <CharString name="uni1EF7">
          -107 236 591 -101 callgsubr
          -97 -829 -98 callsubr
          endchar
        </CharString>
        <CharString name="uni1EF8">
          23 167 752 rmoveto
          -103 callgsubr
          104 -752 rmoveto
          -85 callgsubr
          endchar
        </CharString>
        <CharString name="uni1EF8.loclGUA">
          23 167 752 rmoveto
          -103 callgsubr
          157 -764 -95 callgsubr
        </CharString>
        <CharString name="uni1EF9">
          -107 101 607 rmoveto
          -103 callgsubr
          38 -789 -98 callsubr
          endchar
        </CharString>
        <CharString name="uni1EF9.loclGUA">
          129 607 rmoveto
          -103 callgsubr
          149 -789 -95 callsubr
        </CharString>
        <CharString name="uni2015">
          356 32 225 rmoveto
          936 90 -936 hlineto
          endchar
        </CharString>
        <CharString name="uni203E">
          -311 -15 790 rmoveto
          364 88 -364 hlineto
          endchar
        </CharString>
        <CharString name="uni207F">
          -259 52 399 rmoveto
          78 192 hlineto
          47 31 33 40 36 22 -15 -47 vhcurveto
          -210 78 223 vlineto
          83 -43 31 -64 -46 -34 -20 -31 -22 vhcurveto
          -4 hlineto
          -6 44 rlineto
          -66 hlineto
          endchar
        </CharString>
        <CharString name="uni20B2">
          -54 339 254 rmoveto
          65 -3 hlineto
          -39 -40 -34 -62 -2 vhcurveto
          334 vlineto
          64 -1 40 -33 -54 vvcurveto
          126 hlineto
          132 -101 63 -129 1 vhcurveto
          105 -51 -108 vlineto
          -132 -16 -77 -89 -170 vvcurveto
          -171 79 -88 130 -12 vhcurveto
          -118 51 118 vlineto
          50 3 46 14 32 33 11 -46 rcurveline
          91 288 -193 hlineto
          -173 -30 rmoveto
          23 vlineto
          83 30 49 55 17 vhcurveto
          -322 vlineto
          -57 15 -28 47 88 vvcurveto
          endchar
        </CharString>
        <CharString name="uni2105">
          241 212 319 rmoveto
          95 60 56 95 hvcurveto
          -84 hlineto
          -51 -26 -28 -44 -58 -25 34 77 vhcurveto
          13 vlineto
          77 25 35 58 42 25 -28 -52 vhcurveto
          87 hlineto
          101 -62 50 -93 -108 -61 -60 -129 -133 60 -57 109 vhcurveto
          -70 -331 rmoveto
          81 hlineto
          506 710 rlineto
          -80 hlineto
          19 -710 rmoveto
          111 64 60 129 130 -64 60 -111 -111 -65 -60 -130 -129 65 -60 111 hvcurveto
          72 vmoveto
          -60 -29 34 77 hvcurveto
          13 vlineto
          77 29 35 60 60 29 -35 -77 vhcurveto
          -13 vlineto
          -77 -29 -34 -60 vhcurveto
          endchar
        </CharString>
        <CharString name="uni2113">
          -213 194 198 rmoveto
          62 vlineto
          106 106 77 116 100 vvcurveto
          96 -47 57 -83 -79 -76 -56 -171 vhcurveto
          -248 vlineto
          -17 -15 -15 -13 -14 -11 rrcurveto
          -83 vlineto
          46 35 rlineto
          -3 vlineto
          -101 1 47 -81 121 hhcurveto
          40 31 9 17 31 hvcurveto
          93 vlineto
          -18 -25 -29 -12 -35 hhcurveto
          -44 -36 33 88 hvcurveto
          310 vmoveto
          113 32 37 30 30 13 -28 -47 -72 -46 -80 -59 -72 vhcurveto
          endchar
        </CharString>
        <CharString name="uni2116">
          456 877 304 rmoveto
          111 57 61 136 136 -57 61 -111 -111 -57 -61 -136 -136 57 -61 111 hvcurveto
          -806 -304 rmoveto
          123 405 hlineto
          18 -2 35 6 vvcurveto
          5 3 3 -5 16 -30 17 -23 rlinecurve
          291 -409 rlineto
          120 686 -123 -399 hlineto
          -15 2 -38 -8 vvcurveto
          -5 -2 -3 5 -21 36 -12 17 rlinecurve
          -289 404 rlineto
          -122 hlineto
          806 -307 rmoveto
          -50 -23 37 80 hvcurveto
          10 vlineto
          80 23 37 50 51 22 -37 -80 vhcurveto
          -10 vlineto
          -80 -22 -37 -51 vhcurveto
          -152 -197 rmoveto
          306 81 -34 callsubr
          endchar
        </CharString>
        <CharString name="uni2126">
          -65 callsubr
        </CharString>
        <CharString name="uni2153">
          190 111 -12 -59 callgsubr
          -609 -55 callsubr
          615 -409 -58 callgsubr
        </CharString>
        <CharString name="uni2154">
          190 36 331 -16 callsubr
          21 14 19 14 rrcurveto
          49 34 61 44 72 vvcurveto
          45 -25 63 -94 -70 -60 -31 -75 -14 2 -12 0 -20 callgsubr
          -23 -18 -15 -5 -16 -11 -13 vhcurveto
          -15 -20 -23 -17 -25 -19 rrcurveto
          -48 -36 -50 -38 -64 vvcurveto
          80 -367 -59 callgsubr
          1 -710 -58 callgsubr
        </CharString>
        <CharString name="uni2206">
          -32 13 hmoveto
          586 hlineto
          -280 698 rlineto
          -212 -637 rmoveto
          187 427 174 -427 rlineto
          endchar
        </CharString>
        <CharString name="uni2215">
          -477 -231 -12 -59 callgsubr
          endchar
        </CharString>
        <CharString name="uni2219">
          -294 168 189 rmoveto
          36 30 29 37 36 -30 30 -36 -37 -29 -30 -36 -37 29 -29 37 hvcurveto
          endchar
        </CharString>
        <CharString name="uniA78B">
          -439 48 207 rmoveto
          76 hlineto
          46 366 rlineto
          113 -122 vlineto
          endchar
        </CharString>
        <CharString name="uniA78C">
          -461 48 287 rmoveto
          73 hlineto
          42 317 rlineto
          119 -115 vlineto
          endchar
        </CharString>
        <CharString name="uogonek">
          455 -8 callsubr
          -36 -14 21 23 32 28 25 48 13 hvcurveto
          -47 callsubr
          -306 vlineto
          -75 -52 -53 -66 -60 -37 25 75 vhcurveto
          334 -120 -355 vlineto
          -134 69 -49 101 76 56 33 49 37 vhcurveto
          7 hlineto
          9 -68 rlineto
          -43 -20 -29 -32 -46 vvcurveto
          -65 56 -21 49 vhcurveto
          endchar
        </CharString>
        <CharString name="uring">
          295 -42 callsubr
          -58 -624 -103 callsubr
          endchar
        </CharString>
        <CharString name="utilde">
          128 607 rmoveto
          -103 callgsubr
          109 -619 -103 callsubr
          endchar
        </CharString>
        <CharString name="v">
          -107 205 hmoveto
          126 hlineto
          195 526 rlineto
          -121 hlineto
          -85 -239 rlineto
          -19 -53 -27 -107 0 vvcurveto
          -5 hlineto
          0 -30 114 -17 46 vhcurveto
          -86 239 rlineto
          -126 hlineto
          endchar
        </CharString>
        <CharString name="w">
          115 162 hmoveto
          -92 callsubr
        </CharString>
        <CharString name="wacute">
          115 331 591 -100 callsubr
          -250 -723 rmoveto
          -92 callsubr
        </CharString>
        <CharString name="wcircumflex">
          115 219 -77 callgsubr
          -163 -723 rmoveto
          -92 callsubr
        </CharString>
        <CharString name="wdieresis">
          115 225 -71 callsubr
          -265 -723 rmoveto
          -92 callsubr
        </CharString>
        <CharString name="wgrave">
          115 331 591 -86 callgsubr
          -61 -720 rmoveto
          -92 callsubr
        </CharString>
        <CharString name="x">
          -107 6 hmoveto
          136 hlineto
          120 184 rlineto
          6 hlineto
          118 -184 rlineto
          144 hlineto
          -188 274 178 252 rlineto
          -137 hlineto
          -107 -165 rlineto
          -6 hlineto
          -106 165 rlineto
          -145 hlineto
          176 -255 rlineto
          endchar
        </CharString>
        <CharString name="y">
          -107 139 -182 -98 callsubr
          endchar
        </CharString>
        <CharString name="y.loclGUA">
          278 -182 -95 callsubr
        </CharString>
        <CharString name="yacute">
          -107 220 591 -100 callsubr
          -162 -905 -98 callsubr
          endchar
        </CharString>
        <CharString name="yacute.loclGUA">
          248 591 -100 callsubr
          -51 -905 -95 callsubr
        </CharString>
        <CharString name="ycircumflex">
          -107 108 -77 callgsubr
          -75 -905 -98 callsubr
          endchar
        </CharString>
        <CharString name="ycircumflex.loclGUA">
          -24 callgsubr
          36 -905 -95 callsubr
        </CharString>
        <CharString name="ydieresis">
          -107 114 -71 callsubr
          -177 -905 -98 callsubr
          endchar
        </CharString>
        <CharString name="ydieresis.loclGUA">
          142 -71 callsubr
          -66 -905 -95 callsubr
        </CharString>
        <CharString name="yen">
          -88 221 hmoveto
          120 151 189 76 -189 70 189 75 -153 hlineto
          8 15 19 29 17 30 133 240 rcurveline
          -130 hlineto
          -96 -193 -17 -33 -16 -35 -8 -15 rlinecurve
          -4 hlineto
          -7 15 -15 32 -20 35 -100 194 rcurveline
          -139 hlineto
          141 -247 15 -27 19 -27 6 -13 rlinecurve
          -155 -75 193 -70 -193 -76 193 hlineto
          endchar
        </CharString>
        <CharString name="ygrave">
          -107 220 591 -86 callgsubr
          27 -902 -98 callsubr
          endchar
        </CharString>
        <CharString name="ygrave.loclGUA">
          248 591 -86 callgsubr
          138 -902 -95 callsubr
        </CharString>
        <CharString name="z">
          -144 22 hmoveto
          -81 callsubr
          endchar
        </CharString>
        <CharString name="zacute">
          -144 202 591 -100 callsubr
          -261 -723 rmoveto
          -81 callsubr
          endchar
        </CharString>
        <CharString name="zacute.loclPLK">
          -144 202 591 -68 callgsubr
          -208 -722 rmoveto
          -81 callsubr
          endchar
        </CharString>
        <CharString name="zcaron">
          -144 196 588 -96 callsubr
          -68 -723 rmoveto
          -81 callsubr
          endchar
        </CharString>
        <CharString name="zdotaccent">
          -144 190 -44 callsubr
          -168 -724 rmoveto
          -81 callsubr
          endchar
        </CharString>
        <CharString name="zero">
          -88 278 -12 rmoveto
          148 90 76 279 279 -90 76 -148 -149 -89 -76 -279 -279 89 -76 149 -27 callgsubr
          -95 -19 79 155 hvcurveto
          49 vlineto
          153 19 78 95 95 19 -79 -155 vhcurveto
          -49 vlineto
          -153 -19 -78 -95 vhcurveto
          endchar
        </CharString>
      <CharString index="0">
        rmoveto
        82 51 29 43 35 -46 callgsubr
        -44 12 36 -27 52 hhcurveto
        36 26 9 6 13 hvcurveto
        82 -32 vlineto
        -18 -17 10 25 hvcurveto
        251 vlineto
        105 -68 61 -142 -128 -86 -55 -91 -9 0 -7 1 -6 vhcurveto
        116 14 hlineto
        28 20 31 77 74 16 -35 -45 vhcurveto
        -44 vlineto
        -193 -137 -40 -143 -128 107 -20 60 hvcurveto
        36 96 rmoveto
        -53 -27 22 42 70 93 16 -31 callsubr
        -24 vlineto
        -76 -47 -50 -80 vhcurveto
        return
      </CharString>
      <CharString index="1">
        rmoveto
        215 131 114 241 241 -131 114 -215 -215 -130 -114 -241 -241 130 -114 215 hvcurveto
        108 vmoveto
        -139 -75 79 157 hvcurveto
        21 vlineto
        157 76 80 138 139 76 -80 -157 vhcurveto
        2 callgsubr
        return
      </CharString>
      <CharString index="2">
        rmoveto
        131 1 callgsubr
        -49 -31 -63 -91 -36 50 101 -4 vhcurveto
        361 36 hlineto
        187 -79 81 -152 -168 -84 -86 -189 -189 83 -21 callgsubr
        vhcurveto
        -128 331 rmoveto
        84 9 39 40 80 hhcurveto
        64 42 -35 -89 hvcurveto
        return
      </CharString>
      <CharString index="3">
        rmoveto
        236 hlineto
        113 73 70 89 79 -56 57 -79 hvcurveto
        -230 hlineto
        -26 -15 15 19 21 17 13 28 hvcurveto
        82 hlineto
        142 79 69 110 49 -19 42 -33 31 hvcurveto
        67 15 42 45 71 vvcurveto
        -116 hlineto
        -2 -24 -14 -39 -48 -28 rrcurveto
        11 -30 -35 5 -39 hhcurveto
        -144 -82 -69 -109 -61 27 -48 48 -31 hvcurveto
        -44 -11 -47 -29 -50 vvcurveto
        -37 21 -27 31 -16 vhcurveto
        -40 -18 -42 -31 -60 vvcurveto
        -82 66 -41 69 vhcurveto
        138 448 rmoveto
        -72 -35 34 60 59 35 35 72 71 36 -35 -59 -60 -36 -34 -71 hvcurveto
        -96 -361 rmoveto
        -33 -23 21 32 31 23 22 33 hvcurveto
        202 hlineto
        33 25 -19 -34 -32 -29 -21 -37 hvcurveto
        endchar
      </CharString>
      <CharString index="4">
        69 hlineto
        26 3 12 9 17 47 40 -35 51 hhcurveto
        67 27 54 62 hvcurveto
        -68 hlineto
        -26 -3 -12 -9 -18 -46 -41 35 -51 hhcurveto
        -67 -27 -54 -62 hvcurveto
        return
      </CharString>
      <CharString index="5">
        rmoveto
        -106 callsubr
        endchar
      </CharString>
      <CharString index="6">
        rmoveto
        64 26 hlineto
        40 3 36 16 38 vvcurveto
        50 -63 11 -45 -24 -32 -3 -5 -23 vhcurveto
        -42 58 vlineto
        22 12 -4 -15 -13 -8 -6 -23 hvcurveto
        -14 hlineto
        return
      </CharString>
      <CharString index="7">
        -99 callgsubr
        endchar
      </CharString>
      <CharString index="8">
        -101 callsubr
        -79 -94 callsubr
        return
      </CharString>
      <CharString index="9">
        rmoveto
        168 122 59 154 hvcurveto
        246 -431 -69 136 vvcurveto
        49 55 27 90 85 57 -34 -58 vhcurveto
        -11 126 12 vlineto
        140 -120 59 -147 -157 -118 -61 -128 vhcurveto
        -253 431 82 -155 vvcurveto
        -52 -47 -35 -111 -100 -61 39 67 vhcurveto
        1 18 rlineto
        -129 hlineto
        -4 -1 -10 -7 vvcurveto
        -145 134 -66 153 vhcurveto
        return
      </CharString>
      <CharString index="10">
        rmoveto
        133 99 44 123 hvcurveto
        205 -327 -69 100 vvcurveto
        28 29 24 66 65 34 -25 -41 vhcurveto
        -4 117 vlineto
        1 1 11 10 vvcurveto
        85 -86 58 -124 -128 -95 -54 -103 vhcurveto
        -198 327 70 -113 vvcurveto
        -42 -53 -16 -53 -59 -55 20 56 -1 vhcurveto
        8 -117 vlineto
        -1 -1 -6 -9 vvcurveto
        -92 77 -70 151 vhcurveto
        return
      </CharString>
      <CharString index="11">
        123 411 hlineto
        17 -2 33 5 vvcurveto
        5 3 3 -4 15 -29 16 -23 rlinecurve
        300 -413 rlineto
        120 686 -123 -408 hlineto
        -13 2 -35 -6 vvcurveto
        -5 -2 -3 4 -20 35 -11 16 rlinecurve
        -298 409 rlineto
        -122 hlineto
        return
      </CharString>
      <CharString index="12">
        rmoveto
        171 101 85 181 -22 callgsubr
        -186 vlineto
        -123 -56 -64 -94 -76 -43 41 80 vhcurveto
        252 -128 -249 vlineto
        -151 75 -81 142 78 61 26 59 36 vhcurveto
        5 -52 hlineto
        -96 -53 -46 -91 -76 -49 25 47 vhcurveto
        -128 -7 hlineto
        -117 99 -56 154 vhcurveto
        endchar
      </CharString>
      <CharString index="13">
        rmoveto
        -127 64 vlineto
        -14 -39 -32 -23 -52 -12 rrcurveto
        36 -42 -60 17 -77 hhcurveto
        -172 -87 -86 -189 -189 87 -86 172 -31 callgsubr
        86 189 70 -12 56 -24 43 hvcurveto
        91 30 44 63 107 vvcurveto
        54 vlineto
        -223 -430 rmoveto
        -48 callsubr
        14 vlineto
        114 38 56 97 96 39 -56 -114 vhcurveto
        return
      </CharString>
      <CharString index="14">
        541 109 -413 187 363 109 -363 172 407 109 -535 hlineto
        return
      </CharString>
      <CharString index="15">
        148 hlineto
        110 452 rlineto
        7 32 11 70 0 vvcurveto
        4 hlineto
        0 10 -64 9 -38 vhcurveto
        111 -452 rlineto
        148 hlineto
        188 -35 callsubr
        -121 hlineto
        -112 -444 rlineto
        -8 -30 -12 -69 0 vvcurveto
        -5 hlineto
        0 -12 70 -6 29 vhcurveto
        -103 444 rlineto
        -162 hlineto
        -103 -444 rlineto
        -5 -23 -12 -76 0 vvcurveto
        -5 hlineto
        0 -12 72 -7 27 vhcurveto
        -113 444 rlineto
        -136 hlineto
        endchar
      </CharString>
      <CharString index="16">
        -90 callgsubr
        endchar
      </CharString>
      <CharString index="17">
        -101 callsubr
        -347 -82 callgsubr
        return
      </CharString>
      <CharString index="18">
        128 265 213 hlineto
        130 -265 rlineto
        140 hlineto
        -147 285 rlineto
        81 32 41 68 93 vvcurveto
        127 -73 81 -151 vhcurveto
        -362 -5 callsubr
        -313 rmoveto
        204 224 vlineto
        69 36 -37 -62 -65 -39 -40 -66 hvcurveto
        return
      </CharString>
      <CharString index="19">
        rmoveto
        173 130 84 179 hvcurveto
        -126 hlineto
        -100 -69 -55 -106 -139 -64 77 160 vhcurveto
        20 vlineto
        157 65 80 138 100 70 -55 -102 vhcurveto
        131 hlineto
        179 -132 86 -171 -210 -122 -114 -241 -247 122 -108 210 vhcurveto
        endchar
      </CharString>
      <CharString index="20">
        rmoveto
        -127 64 vlineto
        -9 -24 -15 -18 -23 -13 rrcurveto
        -107 -429 hlineto
        -106 -61 -55 -102 -102 -59 55 106 vhcurveto
        429 -128 -432 vlineto
        -179 109 -87 180 182 109 87 179 vhcurveto
        371 vlineto
        72 34 35 60 95 vvcurveto
        54 vlineto
        return
      </CharString>
      <CharString index="21">
        -60 callgsubr
        -28 callgsubr
        rlineto
        return
      </CharString>
      <CharString index="22">
        127 279 hlineto
        264 407 rlineto
        -141 hlineto
        -180 -292 rlineto
        -5 hlineto
        -183 292 rlineto
        -147 hlineto
        265 -1 callsubr
        return
      </CharString>
      <CharString index="23">
        rmoveto
        92 38 49 59 36 -18 30 -36 18 hvcurveto
        29 19 16 28 30 vvcurveto
        57 -41 47 -80 -80 -41 -47 -57 -30 16 -28 29 -19 vhcurveto
        -39 -18 -15 -30 -36 vvcurveto
        -59 38 -49 92 vhcurveto
        222 vmoveto
        -29 -16 16 27 29 16 15 29 28 18 -15 -29 -27 -18 -16 -28 hvcurveto
        -159 vmoveto
        -35 -18 19 30 29 18 17 35 34 19 -17 -29 -30 -19 -19 -34 hvcurveto
        endchar
      </CharString>
      <CharString index="24">
        -80 callgsubr
        endchar
      </CharString>
      <CharString index="25">
        -738 rmoveto
        -106 callsubr
        return
      </CharString>
      <CharString index="26">
        274 hlineto
        207 126 108 235 235 -126 108 -207 hvcurveto
        -274 -5 callsubr
        -577 rmoveto
        468 146 vlineto
        130 72 -74 -150 hvcurveto
        -20 vlineto
        -150 -1 -71 -74 -130 hhcurveto
        return
      </CharString>
      <CharString index="27">
        -75 callgsubr
        -76 -56 -33 -49 -37 vhcurveto
        -7 hlineto
        -10 70 rlineto
        -99 hlineto
        return
      </CharString>
      <CharString index="28">
        rmoveto
        141 80 70 137 hvcurveto
        491 -129 -491 vlineto
        -64 -31 -35 -61 -63 -33 33 60 vhcurveto
        37 -127 -36 vlineto
        -133 81 -69 142 vhcurveto
        endchar
      </CharString>
      <CharString index="29">
        120 274 hlineto
        97 45 45 82 vhcurveto
        38 113 hlineto
        0 -21 9 -29 -66 -33 -45 -50 -19 vhcurveto
        -7 hlineto
        -11 83 rlineto
        -99 hlineto
        return
      </CharString>
      <CharString index="30">
        588 -104 callsubr
        return
      </CharString>
      <CharString index="31">
        246 -12 rmoveto
        67 59 27 55 35 hvcurveto
        6 hlineto
        10 -70 rlineto
        99 -2 callsubr
        -258 -6 hlineto
        49 -32 -54 24 -72 hhcurveto
        -117 -85 -85 -189 -192 81 -84 129 hvcurveto
        return
      </CharString>
      <CharString index="32">
        -22 callsubr
        hlineto
        -85 callsubr
        return
      </CharString>
      <CharString index="33">
        rmoveto
        47 40 -35 51 hhcurveto
        67 27 54 62 hvcurveto
        -68 hlineto
        -26 -3 -12 -9 -18 -46 -41 35 -51 hhcurveto
        -67 -27 -54 -62 hvcurveto
        69 hlineto
        26 3 12 9 17 hhcurveto
        return
      </CharString>
      <CharString index="34">
        rmoveto
        62 hlineto
        56 98 rlineto
        86 -120 -96 -10 callgsubr
      </CharString>
      <CharString index="35">
        738 -101 callsubr
        return
      </CharString>
      <CharString index="36">
        rmoveto
        92 hlineto
        59 78 rlineto
        -28 52 64 -13 75 hhcurveto
        215 131 114 241 122 -33 90 -62 58 hvcurveto
        92 122 rlineto
        -91 hlineto
        -59 -80 rlineto
        29 -53 -65 14 -75 1 callsubr
        -122 33 -90 62 -59 hvcurveto
        76 102 rmoveto
        -27 39 -13 52 68 vvcurveto
        21 vlineto
        157 75 79 139 48 40 -10 -19 33 vhcurveto
        -121 -465 rmoveto
        -48 -39 9 19 -32 hvcurveto
        293 388 rlineto
        27 -39 14 -52 -68 vvcurveto
        -5 callgsubr
      </CharString>
      <CharString index="37">
        758 -93 callsubr
        return
      </CharString>
      <CharString index="38">
        rmoveto
        82 hlineto
        43 62 rlineto
        -16 37 45 -9 53 hhcurveto
        -31 callgsubr
        86 189 97 -23 69 -46 45 hvcurveto
        71 101 rlineto
        -81 hlineto
        -44 -63 rlineto
        17 -37 -45 9 -54 hhcurveto
        -171 -88 -86 -189 -98 24 -70 45 -45 hvcurveto
        72 103 rmoveto
        -11 26 -6 35 44 vvcurveto
        12 vlineto
        114 39 56 96 30 24 -7 -10 19 vhcurveto
        -73 -337 rmoveto
        -30 -23 6 10 -19 hvcurveto
        190 270 rlineto
        12 -26 6 -35 -43 vvcurveto
        -12 vlineto
        -114 -39 -56 -97 vhcurveto
        endchar
      </CharString>
      <CharString index="39">
        -60 callgsubr
        48 130 -1 1 rlineto
        -114 hlineto
        return
      </CharString>
      <CharString index="40">
        23 37 vvcurveto
        66 -50 36 -73 -70 -52 -40 -62 vhcurveto
        -14 76 10 vlineto
        28 20 15 27 26 19 -13 -30 -31 -21 -14 -27 vhcurveto
        -33 -64 31 hlineto
        30 27 -10 -37 -32 -21 -14 -32 -34 -19 16 29 hvcurveto
        11 -76 -9 vlineto
        -68 return
      </CharString>
      <CharString index="41">
        -868 -90 callsubr
        return
      </CharString>
      <CharString index="42">
        rlineto
        44 hlineto
        32 9 -8 -16 -19 -16 -5 -27 hvcurveto
        -93 -49 hlineto
        -5 29 39 -3 33 hhcurveto
        return
      </CharString>
      <CharString index="43">
        -120 hlineto
        return
      </CharString>
      <CharString index="44">
        29 15 16 30 vhcurveto
        50 83 hlineto
        8 -19 -36 7 -28 hhcurveto
        -103 -29 -69 -68 hvcurveto
        -68 -76 -98 76 return
      </CharString>
      <CharString index="45">
        rmoveto
        305 82 -305 hlineto
        return
      </CharString>
      <CharString index="46">
        274 hlineto
        207 126 108 235 235 -126 108 -207 hvcurveto
        -274 hlineto
        670 -686 rmoveto
        -76 callsubr
        -542 48 rmoveto
        468 146 vlineto
        130 72 -74 -150 hvcurveto
        -20 vlineto
        -150 -1 -71 -74 -130 hhcurveto
        endchar
      </CharString>
      <CharString index="47">
        rmoveto
        95 hlineto
        return
      </CharString>
      <CharString index="48">
        rmoveto
        82 hlineto
        546 710 rlineto
        -82 hlineto
        return
      </CharString>
      <CharString index="49">
        -39 callsubr
        14 27 26 19 -12 -30 -31 -21 -14 -27 vhcurveto
        -33 -64 31 hlineto
        30 27 -10 -37 -32 -21 -15 -32 -34 -19 17 -9 callsubr
      </CharString>
      <CharString index="50">
        rmoveto
        -56 callsubr
      </CharString>
      <CharString index="51">
        -52 callgsubr
        endchar
      </CharString>
      <CharString index="52">
        -107 70 hmoveto
        120 158 hlineto
        79 76 125 -234 rlineto
        138 hlineto
        -187 322 177 204 rlineto
        -141 hlineto
        -191 -226 rlineto
        return
      </CharString>
      <CharString index="53">
        131 hlineto
        71 149 rlineto
        321 hlineto
        40 -149 rlineto
        386 109 -286 hlineto
        -50 187 rlineto
        286 109 -316 hlineto
        -47 172 rlineto
        407 109 -606 hlineto
        -84 -429 rmoveto
        152 320 rlineto
        5 hlineto
        85 -320 rlineto
        endchar
      </CharString>
      <CharString index="54">
        71 hmoveto
        -96 callgsubr
        return
      </CharString>
      <CharString index="55">
        120 -47 callsubr
        hlineto
        return
      </CharString>
      <CharString index="56">
        492 111 -364 575 -128 hlineto
        return
      </CharString>
      <CharString index="57">
        -66 callgsubr
        endchar
      </CharString>
      <CharString index="58">
        rmoveto
        125 127 -125 hlineto
        return
      </CharString>
      <CharString index="59">
        76 hlineto
        10 169 13 203 9 126 rrcurveto
        -139 hlineto
        8 -126 12 -203 11 -169 rrcurveto
        return
      </CharString>
      <CharString index="60">
        rmoveto
        -1 3 rlineto
        -121 hlineto
        -81 -132 rlineto
        95 hlineto
        return
      </CharString>
      <CharString index="61">
        hvcurveto
        7 hlineto
        return
      </CharString>
      <CharString index="62">
        59 71 hmoveto
        128 199 hlineto
        137 120 206 -319 rlineto
        151 hlineto
        -271 409 266 277 rlineto
        -156 hlineto
        -333 -347 rlineto
        347 -128 vlineto
        return
      </CharString>
      <CharString index="63">
        23 174 -77 callsubr
        return
      </CharString>
      <CharString index="64">
        221 110 -569 -110 221 return
      </CharString>
      <CharString index="65">
        rmoveto
        -28 callgsubr
        108 -129 rlineto
        return
      </CharString>
      <CharString index="66">
        -14 callsubr
        -18 callsubr
        hvcurveto
        -39 callgsubr
        4 -76 vlineto
        -28 -26 -25 -30 -49 -17 callgsubr
        vhcurveto
        endchar
      </CharString>
      <CharString index="67">
        -274 70 hmoveto
        -78 callgsubr
        return
      </CharString>
      <CharString index="68">
        54 -27 vlineto
        -36 -14 25 27 28 21 28 13 14 hvcurveto
        return
      </CharString>
      <CharString index="69">
        -49 callsubr
        -723 vmoveto
        -52 callgsubr
        return
      </CharString>
      <CharString index="70">
        -23 callsubr
        -120 hlineto
        return
      </CharString>
      <CharString index="71">
        84 89 33 -52 -114 vhcurveto
        -13 vlineto
        -113 -33 -52 -89 vhcurveto
        endchar
      </CharString>
      <CharString index="72">
        -60 callgsubr
        100 -23 callsubr
        return
      </CharString>
      <CharString index="73">
        -161 hlineto
        return
      </CharString>
      <CharString index="74">
        hlineto
        55 33 32 59 58 35 -32 -60 vhcurveto
        -17 119 13 vlineto
        134 -83 60 -129 -133 -79 -66 -133 vhcurveto
        return
      </CharString>
      <CharString index="75">
        hvcurveto
        -70 callsubr
        -47 callsubr
        -17 callsubr
        return
      </CharString>
      <CharString index="76">
        172 87 return
      </CharString>
      <CharString index="77">
        197 rlineto
        -21 hlineto
        -170 -197 rlineto
        -49 vlineto
        132 return
      </CharString>
      <CharString index="78">
        -39 -9 40 61 hvcurveto
        13 vlineto
        61 9 40 39 40 8 -40 -61 vhcurveto
        -13 vlineto
        -61 -8 -40 -40 vhcurveto
        return
      </CharString>
      <CharString index="79">
        -82 132 -63 callsubr
        -1 -3 return
      </CharString>
      <CharString index="80">
        hvcurveto
        98 vmoveto
        return
      </CharString>
      <CharString index="81">
        70 -173 rmoveto
        120 234 6 hlineto
        -49 32 54 -24 72 hhcurveto
        117 85 85 189 return
      </CharString>
      <CharString index="82">
        90 53 41 139 139 -53 42 -90 -89 -53 -42 -139 -138 53 -42 89 hvcurveto
        return
      </CharString>
      <CharString index="83">
        136 -77 callgsubr
        return
      </CharString>
      <CharString index="84">
        120 428 95 98 -95 62 return
      </CharString>
      <CharString index="85">
        hvcurveto
        -51 callsubr
        return
      </CharString>
      <CharString index="86">
        -86 169 return
      </CharString>
      <CharString index="87">
        vhcurveto
        74 20 hlineto
        31 16 17 35 34 12 return
      </CharString>
      <CharString index="88">
        rmoveto
        75 53 40 65 43 return
      </CharString>
      <CharString index="89">
        rmoveto
        223 191 vlineto
        70 36 -41 -69 -70 -39 -43 -67 hvcurveto
        endchar
      </CharString>
      <CharString index="90">
        vvcurveto
        -68 55 -21 49 return
      </CharString>
      <CharString index="91">
        rmoveto
        98 hlineto
        55 174 -1 3 rlineto
        return
      </CharString>
      <CharString index="92">
        vhcurveto
        122 hlineto
        return
      </CharString>
      <CharString index="93">
        -311 41 214 rmoveto
        251 112 -251 hlineto
        endchar
      </CharString>
      <CharString index="94">
        rmoveto
        21 hlineto
        170 197 rlineto
        48 vlineto
        -133 -55 rlineto
        return
      </CharString>
      <CharString index="95">
        rmoveto
        474 196 rlineto
        120 vlineto
        -474 197 rlineto
        return
      </CharString>
      <CharString index="96">
        473 97 -473 hlineto
        return
      </CharString>
      <CharString index="97">
        48 vlineto
        endchar
      </CharString>
      <CharString index="98">
        206 -18 rlineto
        106 vlineto
        -206 -17 17 188 rlineto
        return
      </CharString>
      <CharString index="99">
        -17 callgsubr
        -18 callsubr
        vhcurveto
        54 return
      </CharString>
      <CharString index="100">
        rlineto
        -49 hlineto
        -197 -170 rlineto
        -21 vlineto
        endchar
      </CharString>
      <CharString index="101">
        hlineto
        43 202 rlineto
        -94 hlineto
        -43 -202 rlineto
        return
      </CharString>
      <CharString index="102">
        2 callgsubr
        endchar
      </CharString>
      <CharString index="103">
        -723 rmoveto
        -52 callgsubr
        return
      </CharString>
      <CharString index="104">
        -88 28 hmoveto
        486 101 -312 hlineto
        12 return
      </CharString>
      <CharString index="105">
        vlineto
        380 -148 -380 -148 rlineto
        return
      </CharString>
      <CharString index="106">
        78 313 return
      </CharString>
      <CharString index="107">
        vlineto
        -474 -197 rlineto
        -120 vlineto
        return
      </CharString>
      <CharString index="108">
        100 62 134 hvcurveto
        -118 hlineto
        -70 return
      </CharString>
      <CharString index="109">
        -21 vlineto
        -157 -75 -79 -140 vhcurveto
        return
      </CharString>
      <CharString index="110">
        118 118 -118 hlineto
        endchar
      </CharString>
      <CharString index="111">
        -124 hlineto
        endchar
      </CharString>
</ttFont>
